<svg xmlns="http://www.w3.org/2000/svg" xmlns:xlink="http://www.w3.org/1999/xlink" width="100" zoomAndPan="magnify" viewBox="0 0 75 37.5" height="50" preserveAspectRatio="xMidYMid meet" version="1.0"><defs><g/><clipPath id="eff7197b5b"><path d="M 50 3 L 67 3 L 67 36.5625 L 50 36.5625 Z M 50 3 " clip-rule="nonzero"/></clipPath><clipPath id="c87d25c331"><path d="M 41.625 10 L 50 10 L 50 20 L 41.625 20 Z M 41.625 10 " clip-rule="nonzero"/></clipPath></defs><path fill="#c02faf" d="M 51.035156 16.65625 C 51.023438 16.800781 50.941406 16.972656 51.164062 17.074219 C 51.523438 16.507812 51.761719 15.867188 52.375 15.507812 C 53.121094 15.035156 53.984375 15.125 54.628906 15.726562 C 54.703125 15.777344 54.738281 15.890625 54.773438 15.984375 C 55.085938 17.082031 54.148438 18.480469 53.824219 19.550781 C 54.796875 18.238281 55.777344 16.933594 56.878906 15.71875 C 57.195312 15.351562 57.515625 15.171875 57.988281 15.253906 C 58.160156 15.242188 58.292969 15.269531 58.414062 15.40625 C 59.40625 16.421875 60.425781 17.40625 61.410156 18.429688 C 61.925781 18.90625 57.738281 21.554688 57.199219 21.792969 C 57.054688 21.871094 56.941406 21.871094 56.8125 21.75 C 56.585938 21.542969 56.355469 21.34375 56.105469 21.171875 C 55.191406 20.441406 54.164062 21.117188 53.292969 21.574219 C 53.0625 21.703125 52.8125 21.835938 52.769531 22.183594 C 53.34375 22.148438 53.90625 22.117188 54.464844 22.070312 C 54.726562 22.050781 54.960938 22.058594 55.191406 22.222656 C 55.460938 22.410156 55.753906 22.558594 56.035156 22.730469 C 56.367188 22.933594 56.714844 22.996094 57.078125 22.851562 C 57.925781 22.515625 58.769531 22.1875 59.605469 21.824219 C 61.003906 21.222656 62.304688 20.425781 63.535156 19.527344 C 63.699219 19.410156 63.765625 19.25 63.699219 19.058594 C 62.609375 17.144531 60.925781 15.609375 59.644531 13.816406 C 59.066406 13.121094 58.449219 12.082031 57.472656 11.964844 C 57.140625 11.933594 56.746094 11.941406 56.449219 11.804688 C 56 11.515625 55.675781 11.113281 55.507812 10.601562 C 54.953125 8.917969 54.015625 6.832031 53.929688 6.414062 C 53.914062 6.34375 53.773438 5.851562 53.753906 5.789062 C 53.621094 5.410156 53.359375 5.089844 53.023438 4.890625 C 52.851562 4.789062 52.671875 4.722656 52.472656 4.6875 C 51.847656 5.484375 52.53125 6.253906 51.703125 6.652344 C 51.117188 7.039062 51.5625 7.160156 51.890625 7.496094 C 51.613281 7.753906 51.832031 7.691406 51.679688 8 C 51.71875 8.292969 51.585938 8.816406 52.007812 8.835938 C 52.621094 8.875 53.144531 8.648438 53.757812 8.511719 C 53.992188 9.261719 54.308594 11.761719 53.011719 11.589844 C 50.703125 11.160156 50.519531 11.328125 50.257812 13.695312 C 50.269531 14.257812 49.882812 14.417969 49.558594 14.8125 C 50.640625 14.957031 51.144531 15.574219 51.035156 16.65625 Z M 51.035156 16.65625 " fill-opacity="1" fill-rule="nonzero"/><g clip-path="url(#eff7197b5b)"><path fill="#c02faf" d="M 65.28125 15.316406 C 63.035156 11.359375 57.96875 10.109375 55.976562 6.015625 L 56.042969 5.96875 C 57.730469 7.894531 59.949219 9.386719 62.425781 10.070312 C 58.183594 7.765625 59.28125 4.484375 56.035156 3.503906 C 55 3.226562 52.847656 3.199219 52.433594 4.429688 C 52.515625 4.433594 52.601562 4.449219 52.683594 4.464844 C 52.695312 4.46875 52.710938 4.472656 52.722656 4.472656 L 52.75 4.472656 C 52.746094 4.476562 52.746094 4.476562 52.742188 4.480469 C 52.941406 4.527344 53.132812 4.613281 53.300781 4.722656 C 53.488281 4.847656 53.640625 5.007812 53.765625 5.195312 C 53.882812 5.371094 53.96875 5.574219 54.019531 5.789062 C 54.125 6.222656 54.289062 6.640625 54.535156 7.015625 C 57.144531 11.035156 62.761719 11.363281 64.664062 16.574219 C 66.167969 20.796875 64.257812 25.050781 60.253906 26.980469 C 57.738281 28.347656 53.152344 29.441406 51.515625 31.722656 C 50.359375 33.46875 50.089844 34.46875 50.546875 36.546875 C 50.574219 36.546875 50.566406 36.546875 50.59375 36.546875 C 51.214844 33.621094 53.582031 31.742188 56.296875 30.75 C 58.652344 29.820312 61.171875 29.199219 63.199219 27.605469 C 67.140625 24.753906 67.992188 19.316406 65.28125 15.316406 Z M 65.28125 15.316406 " fill-opacity="1" fill-rule="nonzero"/></g><path fill="#c02faf" d="M 48.34375 29.070312 C 50.183594 25.21875 54.835938 24.9375 58.347656 23.46875 C 59.195312 23.175781 59.890625 22.597656 60.691406 22.234375 C 59.308594 23.679688 57.691406 24.933594 55.988281 25.992188 C 52.726562 28.011719 49.277344 29.945312 49.011719 34.21875 C 48.1875 31.738281 49.675781 29.042969 51.640625 27.542969 C 49.976562 27.921875 47.953125 30.882812 48 32.898438 C 47.773438 31.621094 47.773438 30.261719 48.34375 29.070312 Z M 48.34375 29.070312 " fill-opacity="1" fill-rule="nonzero"/><g clip-path="url(#c87d25c331)"><path fill="#c02faf" d="M 44.660156 11.78125 C 44.503906 11.253906 43.875 11.054688 43.464844 10.71875 C 43.691406 10.550781 43.832031 10.726562 43.976562 10.769531 C 44.558594 10.96875 45.144531 11.253906 45.441406 11.816406 C 46.027344 12.714844 46.597656 13.628906 47.203125 14.519531 C 48.105469 15.894531 49.234375 17.128906 49.957031 18.621094 C 50.015625 18.753906 49.992188 18.824219 49.890625 18.902344 C 49.6875 19.054688 49.488281 19.210938 49.28125 19.359375 C 49.050781 19.527344 48.972656 19.511719 48.789062 19.296875 C 47.355469 17.710938 46.621094 15.707031 45.730469 13.796875 C 45.558594 13.425781 45.28125 13.160156 44.898438 13.003906 C 44.4375 12.8125 43.980469 12.601562 43.507812 12.429688 C 42.664062 12.085938 42.941406 11.082031 41.625 10.292969 C 41.953125 10.082031 42.53125 10.535156 42.773438 10.75 C 43.28125 11.253906 43.878906 11.601562 44.578125 11.851562 C 44.628906 11.832031 44.644531 11.808594 44.660156 11.78125 Z M 44.660156 11.78125 " fill-opacity="1" fill-rule="nonzero"/></g><path fill="#f59a10" d="M 55.359375 2.722656 C 54.234375 2.753906 52.964844 2.640625 52.179688 3.59375 C 51.761719 2.828125 51.421875 2.027344 50.769531 1.417969 C 50.984375 1.390625 51.140625 1.449219 51.40625 1.640625 C 51.808594 1.097656 52.285156 1.996094 51.617188 2.015625 C 52.21875 2.765625 52.789062 2.714844 52.949219 1.683594 C 53.597656 2.113281 54.242188 2.40625 54.546875 1.449219 C 54.410156 1.445312 54.273438 1.464844 54.144531 1.429688 C 53.777344 1.25 53.867188 0.816406 54.34375 0.699219 C 54.367188 0.285156 54.441406 -0.113281 54.785156 -0.429688 C 55.136719 -0.125 55.207031 0.269531 55.21875 0.648438 C 55.367188 0.761719 55.519531 0.84375 55.609375 0.964844 C 55.730469 1.3125 55.4375 1.621094 55.007812 1.394531 C 55.261719 2.292969 55.960938 2.265625 56.5625 1.6875 C 56.273438 1.5 56.417969 1.097656 56.761719 1.183594 C 56.90625 1.210938 56.957031 1.316406 56.957031 1.433594 C 56.957031 1.613281 56.804688 1.671875 56.632812 1.730469 C 56.859375 2.726562 57.308594 2.746094 57.972656 2.027344 C 57.28125 2.003906 57.761719 1.097656 58.15625 1.640625 C 58.355469 1.515625 58.539062 1.378906 58.75 1.394531 C 58.242188 2.078125 57.800781 2.8125 57.433594 3.589844 C 56.902344 2.9375 56.128906 2.851562 55.355469 2.722656 Z M 55.359375 2.722656 " fill-opacity="1" fill-rule="nonzero"/><path fill="#c02faf" d="M 61.226562 23.414062 C 61.964844 22.582031 62.558594 21.722656 62.996094 20.707031 C 63.105469 20.8125 63.222656 20.878906 63.128906 21.039062 C 63.207031 21.515625 63.152344 21.996094 63.011719 22.457031 C 62.378906 25.292969 57.527344 26.914062 55.089844 27.816406 C 55.074219 27.796875 55.0625 27.773438 55.050781 27.753906 C 56.652344 26.695312 58.460938 25.929688 59.90625 24.632812 C 60.351562 24.242188 60.78125 23.832031 61.226562 23.414062 Z M 61.226562 23.414062 " fill-opacity="1" fill-rule="nonzero"/><g fill="#8c1e7f" fill-opacity="1"><g transform="translate(6.214032, 24.576283)"><g><path d="M 5.90625 -6.265625 C 6.84375 -6.191406 7.597656 -5.878906 8.171875 -5.328125 C 8.753906 -4.773438 9.046875 -4.09375 9.046875 -3.28125 C 9.046875 -2.644531 8.890625 -2.070312 8.578125 -1.5625 C 8.265625 -1.050781 7.835938 -0.648438 7.296875 -0.359375 C 6.765625 -0.0664062 6.164062 0.078125 5.5 0.078125 C 5.101562 0.078125 4.675781 0.0546875 4.21875 0.015625 C 4.050781 0.00390625 3.851562 -0.00390625 3.625 -0.015625 C 3.40625 -0.0234375 3.160156 -0.03125 2.890625 -0.03125 L 1.671875 -0.015625 C 1.460938 -0.00390625 1.160156 0 0.765625 0 C 0.742188 0 0.734375 -0.0351562 0.734375 -0.109375 C 0.734375 -0.179688 0.742188 -0.21875 0.765625 -0.21875 C 1.203125 -0.21875 1.523438 -0.25 1.734375 -0.3125 C 1.953125 -0.375 2.101562 -0.488281 2.1875 -0.65625 C 2.269531 -0.820312 2.3125 -1.082031 2.3125 -1.4375 L 2.3125 -9.6875 C 2.3125 -10.039062 2.269531 -10.300781 2.1875 -10.46875 C 2.113281 -10.632812 1.972656 -10.75 1.765625 -10.8125 C 1.554688 -10.875 1.234375 -10.90625 0.796875 -10.90625 C 0.765625 -10.90625 0.75 -10.941406 0.75 -11.015625 C 0.75 -11.085938 0.765625 -11.125 0.796875 -11.125 L 1.671875 -11.109375 C 2.171875 -11.078125 2.578125 -11.0625 2.890625 -11.0625 C 3.097656 -11.0625 3.289062 -11.066406 3.46875 -11.078125 C 3.65625 -11.097656 3.816406 -11.113281 3.953125 -11.125 C 4.316406 -11.15625 4.660156 -11.171875 4.984375 -11.171875 C 5.984375 -11.171875 6.726562 -10.953125 7.21875 -10.515625 C 7.71875 -10.085938 7.96875 -9.523438 7.96875 -8.828125 C 7.96875 -8.253906 7.785156 -7.742188 7.421875 -7.296875 C 7.054688 -6.859375 6.550781 -6.515625 5.90625 -6.265625 Z M 4.609375 -10.90625 C 4.296875 -10.90625 4.0625 -10.878906 3.90625 -10.828125 C 3.757812 -10.773438 3.648438 -10.660156 3.578125 -10.484375 C 3.503906 -10.316406 3.46875 -10.035156 3.46875 -9.640625 L 3.46875 -6.265625 L 4.265625 -6.25 C 5.140625 -6.25 5.78125 -6.46875 6.1875 -6.90625 C 6.601562 -7.351562 6.8125 -7.945312 6.8125 -8.6875 C 6.8125 -9.351562 6.628906 -9.890625 6.265625 -10.296875 C 5.910156 -10.703125 5.359375 -10.90625 4.609375 -10.90625 Z M 5.234375 -0.25 C 6.097656 -0.25 6.738281 -0.46875 7.15625 -0.90625 C 7.582031 -1.351562 7.796875 -1.992188 7.796875 -2.828125 C 7.796875 -3.734375 7.53125 -4.460938 7 -5.015625 C 6.476562 -5.578125 5.753906 -5.863281 4.828125 -5.875 C 4.441406 -5.882812 3.988281 -5.875 3.46875 -5.84375 L 3.46875 -1.4375 C 3.46875 -1.132812 3.507812 -0.898438 3.59375 -0.734375 C 3.6875 -0.566406 3.859375 -0.441406 4.109375 -0.359375 C 4.367188 -0.285156 4.742188 -0.25 5.234375 -0.25 Z M 5.234375 -0.25 "/></g></g></g><g fill="#8c1e7f" fill-opacity="1"><g transform="translate(16.146638, 24.576283)"><g><path d="M 6.390625 -1 C 6.421875 -1 6.453125 -0.976562 6.484375 -0.9375 C 6.515625 -0.894531 6.519531 -0.851562 6.5 -0.8125 C 5.71875 -0.125 4.847656 0.21875 3.890625 0.21875 C 3.203125 0.21875 2.613281 0.0546875 2.125 -0.265625 C 1.644531 -0.585938 1.273438 -1.007812 1.015625 -1.53125 C 0.765625 -2.050781 0.640625 -2.609375 0.640625 -3.203125 C 0.640625 -3.898438 0.804688 -4.539062 1.140625 -5.125 C 1.472656 -5.71875 1.925781 -6.179688 2.5 -6.515625 C 3.070312 -6.859375 3.703125 -7.03125 4.390625 -7.03125 C 5.054688 -7.03125 5.566406 -6.851562 5.921875 -6.5 C 6.273438 -6.144531 6.453125 -5.644531 6.453125 -5 C 6.453125 -4.832031 6.4375 -4.710938 6.40625 -4.640625 C 6.382812 -4.566406 6.335938 -4.53125 6.265625 -4.53125 L 1.84375 -4.515625 C 1.820312 -4.253906 1.8125 -4.039062 1.8125 -3.875 C 1.8125 -2.84375 2.054688 -2.003906 2.546875 -1.359375 C 3.035156 -0.722656 3.71875 -0.40625 4.59375 -0.40625 C 4.945312 -0.40625 5.25 -0.453125 5.5 -0.546875 C 5.757812 -0.640625 6.050781 -0.789062 6.375 -1 Z M 3.8125 -6.671875 C 3.300781 -6.671875 2.878906 -6.5 2.546875 -6.15625 C 2.210938 -5.820312 1.992188 -5.351562 1.890625 -4.75 L 5.265625 -4.828125 C 5.265625 -5.429688 5.132812 -5.890625 4.875 -6.203125 C 4.613281 -6.515625 4.257812 -6.671875 3.8125 -6.671875 Z M 3.8125 -6.671875 "/></g></g></g><g fill="#8c1e7f" fill-opacity="1"><g transform="translate(23.40919, 24.576283)"><g><path d="M 7.390625 -0.96875 C 7.429688 -0.96875 7.457031 -0.9375 7.46875 -0.875 C 7.488281 -0.820312 7.472656 -0.785156 7.421875 -0.765625 L 5.59375 0.109375 C 5.539062 0.128906 5.492188 0.140625 5.453125 0.140625 C 5.296875 0.140625 5.15625 0.0351562 5.03125 -0.171875 C 4.914062 -0.378906 4.84375 -0.660156 4.8125 -1.015625 L 3.875 -0.40625 C 3.582031 -0.21875 3.320312 -0.0820312 3.09375 0 C 2.875 0.0820312 2.640625 0.125 2.390625 0.125 C 1.941406 0.125 1.597656 0.0078125 1.359375 -0.21875 C 1.117188 -0.445312 1 -0.742188 1 -1.109375 C 1 -1.460938 1.140625 -1.769531 1.421875 -2.03125 C 1.703125 -2.289062 2.171875 -2.539062 2.828125 -2.78125 L 4.78125 -3.5 L 4.78125 -4.71875 C 4.78125 -6.039062 4.410156 -6.703125 3.671875 -6.703125 C 3.265625 -6.703125 2.957031 -6.566406 2.75 -6.296875 C 2.539062 -6.035156 2.398438 -5.734375 2.328125 -5.390625 C 2.296875 -5.179688 2.234375 -5.003906 2.140625 -4.859375 C 2.046875 -4.722656 1.882812 -4.65625 1.65625 -4.65625 C 1.46875 -4.65625 1.320312 -4.707031 1.21875 -4.8125 C 1.113281 -4.925781 1.0625 -5.054688 1.0625 -5.203125 C 1.0625 -5.484375 1.242188 -5.765625 1.609375 -6.046875 C 1.984375 -6.335938 2.425781 -6.578125 2.9375 -6.765625 C 3.445312 -6.953125 3.90625 -7.046875 4.3125 -7.046875 C 4.789062 -7.046875 5.15625 -6.890625 5.40625 -6.578125 C 5.65625 -6.273438 5.78125 -5.832031 5.78125 -5.25 L 5.78125 -1.921875 C 5.78125 -1.503906 5.832031 -1.203125 5.9375 -1.015625 C 6.050781 -0.828125 6.234375 -0.734375 6.484375 -0.734375 C 6.703125 -0.734375 6.988281 -0.8125 7.34375 -0.96875 Z M 4.78125 -1.265625 L 4.78125 -3.25 L 3.125 -2.609375 C 2.800781 -2.484375 2.5625 -2.332031 2.40625 -2.15625 C 2.257812 -1.988281 2.1875 -1.785156 2.1875 -1.546875 C 2.1875 -1.265625 2.273438 -1.023438 2.453125 -0.828125 C 2.640625 -0.628906 2.882812 -0.53125 3.1875 -0.53125 C 3.425781 -0.53125 3.710938 -0.625 4.046875 -0.8125 Z M 4.78125 -1.265625 "/></g></g></g><g fill="#8c1e7f" fill-opacity="1"><g transform="translate(30.867548, 24.576283)"><g><path d="M 8.671875 -1.015625 C 8.710938 -1.015625 8.742188 -0.988281 8.765625 -0.9375 C 8.785156 -0.882812 8.769531 -0.84375 8.71875 -0.8125 L 6.640625 0.15625 L 6.5625 0.171875 C 6.445312 0.171875 6.332031 0.0351562 6.21875 -0.234375 C 6.113281 -0.503906 6.0625 -0.859375 6.0625 -1.296875 L 6.0625 -1.375 C 5.601562 -0.851562 5.140625 -0.46875 4.671875 -0.21875 C 4.210938 0.0195312 3.734375 0.140625 3.234375 0.140625 C 2.640625 0.140625 2.175781 -0.046875 1.84375 -0.421875 C 1.519531 -0.796875 1.359375 -1.335938 1.359375 -2.046875 L 1.359375 -4.765625 C 1.359375 -5.234375 1.316406 -5.570312 1.234375 -5.78125 C 1.148438 -5.988281 1.007812 -6.09375 0.8125 -6.09375 C 0.644531 -6.09375 0.445312 -6.03125 0.21875 -5.90625 L 0.203125 -5.90625 C 0.148438 -5.90625 0.109375 -5.9375 0.078125 -6 C 0.0546875 -6.070312 0.0703125 -6.113281 0.125 -6.125 L 2.09375 -7.015625 L 2.171875 -7.03125 C 2.203125 -7.03125 2.238281 -7.015625 2.28125 -6.984375 C 2.320312 -6.953125 2.34375 -6.921875 2.34375 -6.890625 L 2.34375 -2.640625 C 2.34375 -1.253906 2.84375 -0.5625 3.84375 -0.5625 C 4.21875 -0.5625 4.601562 -0.660156 5 -0.859375 C 5.394531 -1.054688 5.75 -1.328125 6.0625 -1.671875 L 6.0625 -4.765625 C 6.0625 -5.242188 6.023438 -5.582031 5.953125 -5.78125 C 5.878906 -5.988281 5.738281 -6.09375 5.53125 -6.09375 C 5.363281 -6.09375 5.164062 -6.03125 4.9375 -5.90625 L 4.90625 -5.90625 C 4.863281 -5.90625 4.832031 -5.9375 4.8125 -6 C 4.789062 -6.070312 4.804688 -6.113281 4.859375 -6.125 L 6.828125 -7.015625 L 6.890625 -7.03125 C 6.921875 -7.03125 6.957031 -7.015625 7 -6.984375 C 7.039062 -6.953125 7.0625 -6.921875 7.0625 -6.890625 L 7.0625 -1.90625 C 7.0625 -1.5 7.109375 -1.207031 7.203125 -1.03125 C 7.296875 -0.851562 7.457031 -0.765625 7.6875 -0.765625 C 7.882812 -0.765625 8.195312 -0.847656 8.625 -1.015625 Z M 8.671875 -1.015625 "/></g></g></g><g fill="#8c1e7f" fill-opacity="1"><g transform="translate(39.643132, 24.576283)"><g><path d="M 5.53125 -0.921875 C 5.582031 -0.921875 5.617188 -0.894531 5.640625 -0.84375 C 5.660156 -0.789062 5.65625 -0.753906 5.625 -0.734375 C 5.1875 -0.390625 4.789062 -0.144531 4.4375 0 C 4.09375 0.144531 3.726562 0.21875 3.34375 0.21875 C 2.84375 0.21875 2.429688 0.101562 2.109375 -0.125 C 1.796875 -0.351562 1.640625 -0.726562 1.640625 -1.25 L 1.640625 -5.421875 C 1.640625 -5.734375 1.617188 -5.953125 1.578125 -6.078125 C 1.535156 -6.210938 1.453125 -6.300781 1.328125 -6.34375 C 1.210938 -6.382812 1.015625 -6.40625 0.734375 -6.40625 C 0.679688 -6.40625 0.65625 -6.441406 0.65625 -6.515625 C 0.65625 -6.597656 0.679688 -6.640625 0.734375 -6.640625 C 1.203125 -6.648438 1.582031 -6.773438 1.875 -7.015625 C 2.175781 -7.265625 2.351562 -7.585938 2.40625 -7.984375 C 2.40625 -8.023438 2.453125 -8.046875 2.546875 -8.046875 C 2.628906 -8.046875 2.671875 -8.023438 2.671875 -7.984375 L 2.671875 -6.671875 C 3.265625 -6.679688 4.085938 -6.742188 5.140625 -6.859375 C 5.160156 -6.859375 5.1875 -6.8125 5.21875 -6.71875 C 5.25 -6.625 5.265625 -6.523438 5.265625 -6.421875 C 5.265625 -6.328125 5.242188 -6.226562 5.203125 -6.125 C 5.160156 -6.03125 5.117188 -5.988281 5.078125 -6 C 4.421875 -6.164062 3.617188 -6.257812 2.671875 -6.28125 L 2.671875 -1.84375 C 2.671875 -1.363281 2.789062 -1.003906 3.03125 -0.765625 C 3.28125 -0.523438 3.628906 -0.40625 4.078125 -0.40625 C 4.597656 -0.40625 5.070312 -0.570312 5.5 -0.90625 Z M 5.53125 -0.921875 "/></g></g></g><g fill="#8c1e7f" fill-opacity="1"><g transform="translate(45.659659, 24.576283)"><g><path d="M 7.671875 -6.875 C 7.703125 -6.875 7.71875 -6.835938 7.71875 -6.765625 C 7.71875 -6.691406 7.703125 -6.65625 7.671875 -6.65625 C 7.367188 -6.65625 7.109375 -6.546875 6.890625 -6.328125 C 6.679688 -6.117188 6.484375 -5.769531 6.296875 -5.28125 L 4.125 0.5 C 3.6875 1.644531 3.273438 2.539062 2.890625 3.1875 C 2.503906 3.84375 2.101562 4.304688 1.6875 4.578125 C 1.28125 4.859375 0.8125 5 0.28125 5 C 0.0195312 5 -0.191406 4.9375 -0.359375 4.8125 C -0.535156 4.695312 -0.625 4.53125 -0.625 4.3125 C -0.625 4.144531 -0.566406 4.007812 -0.453125 3.90625 C -0.347656 3.8125 -0.222656 3.765625 -0.078125 3.765625 C 0.078125 3.765625 0.207031 3.78125 0.3125 3.8125 C 0.425781 3.851562 0.539062 3.914062 0.65625 4 C 0.675781 4.007812 0.742188 4.046875 0.859375 4.109375 C 0.972656 4.171875 1.113281 4.203125 1.28125 4.203125 C 1.5625 4.203125 1.828125 4.078125 2.078125 3.828125 C 2.335938 3.578125 2.613281 3.15625 2.90625 2.5625 C 3.195312 1.976562 3.539062 1.171875 3.9375 0.140625 L 1.234375 -5.390625 C 0.953125 -5.910156 0.738281 -6.25 0.59375 -6.40625 C 0.457031 -6.570312 0.273438 -6.65625 0.046875 -6.65625 C 0.0234375 -6.65625 0.015625 -6.691406 0.015625 -6.765625 C 0.015625 -6.835938 0.0234375 -6.875 0.046875 -6.875 L 0.65625 -6.859375 C 0.800781 -6.835938 1 -6.828125 1.25 -6.828125 L 2.390625 -6.859375 C 2.554688 -6.867188 2.785156 -6.875 3.078125 -6.875 C 3.097656 -6.875 3.109375 -6.835938 3.109375 -6.765625 C 3.109375 -6.691406 3.097656 -6.65625 3.078125 -6.65625 C 2.390625 -6.65625 2.046875 -6.519531 2.046875 -6.25 C 2.046875 -6.175781 2.078125 -6.082031 2.140625 -5.96875 L 4.484375 -1.140625 L 5.90625 -5.234375 C 6 -5.515625 6.046875 -5.738281 6.046875 -5.90625 C 6.046875 -6.175781 5.9375 -6.367188 5.71875 -6.484375 C 5.507812 -6.597656 5.164062 -6.65625 4.6875 -6.65625 C 4.65625 -6.65625 4.640625 -6.691406 4.640625 -6.765625 C 4.640625 -6.835938 4.65625 -6.875 4.6875 -6.875 C 5 -6.875 5.238281 -6.867188 5.40625 -6.859375 L 6.484375 -6.828125 L 7.125 -6.859375 C 7.238281 -6.867188 7.421875 -6.875 7.671875 -6.875 Z M 7.671875 -6.875 "/></g></g></g><g fill="#8c1e7f" fill-opacity="1"><g transform="translate(16.59241, 29.547323)"><g><path d="M 4.03125 -0.0625 C 4.039062 -0.0625 4.046875 -0.0507812 4.046875 -0.03125 C 4.046875 -0.0078125 4.039062 0 4.03125 0 C 3.957031 0 3.84375 -0.00390625 3.6875 -0.015625 C 3.53125 -0.015625 3.421875 -0.015625 3.359375 -0.015625 C 3.273438 -0.015625 3.164062 -0.015625 3.03125 -0.015625 C 2.90625 -0.00390625 2.8125 0 2.75 0 C 2.738281 0 2.734375 -0.0078125 2.734375 -0.03125 C 2.734375 -0.0507812 2.738281 -0.0625 2.75 -0.0625 C 2.894531 -0.0625 3 -0.078125 3.0625 -0.109375 C 3.125 -0.140625 3.15625 -0.1875 3.15625 -0.25 C 3.15625 -0.300781 3.128906 -0.382812 3.078125 -0.5 L 2.578125 -1.578125 L 1.203125 -1.578125 L 0.84375 -0.734375 C 0.78125 -0.597656 0.75 -0.492188 0.75 -0.421875 C 0.75 -0.296875 0.796875 -0.203125 0.890625 -0.140625 C 0.984375 -0.0859375 1.128906 -0.0625 1.328125 -0.0625 C 1.335938 -0.0625 1.34375 -0.0507812 1.34375 -0.03125 C 1.34375 -0.0078125 1.335938 0 1.328125 0 C 1.253906 0 1.148438 -0.00390625 1.015625 -0.015625 C 0.867188 -0.015625 0.742188 -0.015625 0.640625 -0.015625 C 0.535156 -0.015625 0.421875 -0.015625 0.296875 -0.015625 C 0.179688 -0.00390625 0.0820312 0 0 0 C -0.0078125 0 -0.015625 -0.0078125 -0.015625 -0.03125 C -0.015625 -0.0507812 -0.0078125 -0.0625 0 -0.0625 C 0.113281 -0.0625 0.207031 -0.0820312 0.28125 -0.125 C 0.351562 -0.164062 0.421875 -0.238281 0.484375 -0.34375 C 0.554688 -0.445312 0.632812 -0.59375 0.71875 -0.78125 L 1.9375 -3.65625 C 1.9375 -3.664062 1.945312 -3.671875 1.96875 -3.671875 C 1.988281 -3.671875 2 -3.664062 2 -3.65625 L 3.359375 -0.796875 C 3.492188 -0.503906 3.609375 -0.304688 3.703125 -0.203125 C 3.796875 -0.109375 3.90625 -0.0625 4.03125 -0.0625 Z M 1.25 -1.703125 L 2.515625 -1.703125 L 1.84375 -3.125 Z M 1.25 -1.703125 "/></g></g></g><g fill="#8c1e7f" fill-opacity="1"><g transform="translate(20.636306, 29.547323)"><g><path d="M 1.09375 -3.5 C 0.84375 -3.5 0.65625 -3.4375 0.53125 -3.3125 C 0.414062 -3.1875 0.332031 -2.976562 0.28125 -2.6875 C 0.28125 -2.675781 0.269531 -2.671875 0.25 -2.671875 C 0.226562 -2.671875 0.21875 -2.675781 0.21875 -2.6875 C 0.226562 -2.820312 0.242188 -3 0.265625 -3.21875 C 0.285156 -3.445312 0.296875 -3.617188 0.296875 -3.734375 C 0.296875 -3.753906 0.304688 -3.765625 0.328125 -3.765625 C 0.347656 -3.765625 0.359375 -3.753906 0.359375 -3.734375 C 0.359375 -3.648438 0.460938 -3.609375 0.671875 -3.609375 C 1.003906 -3.597656 1.390625 -3.59375 1.828125 -3.59375 C 2.054688 -3.59375 2.296875 -3.59375 2.546875 -3.59375 L 2.953125 -3.609375 C 3.085938 -3.609375 3.1875 -3.613281 3.25 -3.625 C 3.320312 -3.644531 3.367188 -3.6875 3.390625 -3.75 C 3.390625 -3.757812 3.398438 -3.765625 3.421875 -3.765625 C 3.441406 -3.765625 3.453125 -3.757812 3.453125 -3.75 C 3.441406 -3.632812 3.425781 -3.460938 3.40625 -3.234375 C 3.394531 -3.015625 3.390625 -2.832031 3.390625 -2.6875 C 3.390625 -2.675781 3.378906 -2.671875 3.359375 -2.671875 C 3.335938 -2.671875 3.328125 -2.675781 3.328125 -2.6875 C 3.316406 -2.988281 3.253906 -3.195312 3.140625 -3.3125 C 3.023438 -3.4375 2.84375 -3.5 2.59375 -3.5 C 2.414062 -3.5 2.289062 -3.488281 2.21875 -3.46875 C 2.144531 -3.457031 2.09375 -3.425781 2.0625 -3.375 C 2.039062 -3.320312 2.03125 -3.238281 2.03125 -3.125 L 2.03125 -0.46875 C 2.03125 -0.34375 2.039062 -0.253906 2.0625 -0.203125 C 2.09375 -0.148438 2.144531 -0.113281 2.21875 -0.09375 C 2.300781 -0.0703125 2.425781 -0.0625 2.59375 -0.0625 C 2.601562 -0.0625 2.609375 -0.0507812 2.609375 -0.03125 C 2.609375 -0.0078125 2.601562 0 2.59375 0 C 2.46875 0 2.363281 0 2.28125 0 L 1.828125 -0.015625 L 1.40625 0 C 1.320312 0 1.210938 0 1.078125 0 C 1.078125 0 1.078125 -0.0078125 1.078125 -0.03125 C 1.078125 -0.0507812 1.078125 -0.0625 1.078125 -0.0625 C 1.242188 -0.0625 1.363281 -0.0703125 1.4375 -0.09375 C 1.519531 -0.113281 1.578125 -0.148438 1.609375 -0.203125 C 1.640625 -0.265625 1.65625 -0.351562 1.65625 -0.46875 L 1.65625 -3.140625 C 1.65625 -3.253906 1.640625 -3.332031 1.609375 -3.375 C 1.578125 -3.425781 1.523438 -3.457031 1.453125 -3.46875 C 1.378906 -3.488281 1.257812 -3.5 1.09375 -3.5 Z M 1.09375 -3.5 "/></g></g></g><g fill="#8c1e7f" fill-opacity="1"><g transform="translate(24.288486, 29.547323)"><g/></g></g><g fill="#8c1e7f" fill-opacity="1"><g transform="translate(25.636451, 29.547323)"><g><path d="M 4.15625 -0.0625 C 4.175781 -0.0625 4.1875 -0.0507812 4.1875 -0.03125 C 4.1875 -0.0078125 4.175781 0 4.15625 0 C 4.039062 0 3.945312 0 3.875 0 L 3.484375 -0.015625 L 3.0625 0 C 2.988281 0 2.894531 0 2.78125 0 C 2.769531 0 2.765625 -0.0078125 2.765625 -0.03125 C 2.765625 -0.0507812 2.769531 -0.0625 2.78125 -0.0625 C 2.9375 -0.0625 3.046875 -0.0703125 3.109375 -0.09375 C 3.179688 -0.113281 3.226562 -0.148438 3.25 -0.203125 C 3.28125 -0.265625 3.296875 -0.351562 3.296875 -0.46875 L 3.296875 -1.8125 L 1.078125 -1.8125 L 1.078125 -0.46875 C 1.078125 -0.351562 1.085938 -0.265625 1.109375 -0.203125 C 1.140625 -0.148438 1.1875 -0.113281 1.25 -0.09375 C 1.320312 -0.0703125 1.429688 -0.0625 1.578125 -0.0625 C 1.585938 -0.0625 1.59375 -0.0507812 1.59375 -0.03125 C 1.59375 -0.0078125 1.585938 0 1.578125 0 C 1.460938 0 1.367188 0 1.296875 0 L 0.890625 -0.015625 L 0.484375 0 C 0.421875 0 0.328125 0 0.203125 0 C 0.191406 0 0.1875 -0.0078125 0.1875 -0.03125 C 0.1875 -0.0507812 0.191406 -0.0625 0.203125 -0.0625 C 0.347656 -0.0625 0.457031 -0.0703125 0.53125 -0.09375 C 0.601562 -0.113281 0.648438 -0.148438 0.671875 -0.203125 C 0.691406 -0.265625 0.703125 -0.351562 0.703125 -0.46875 L 0.703125 -3.140625 C 0.703125 -3.253906 0.691406 -3.335938 0.671875 -3.390625 C 0.648438 -3.441406 0.601562 -3.476562 0.53125 -3.5 C 0.457031 -3.519531 0.347656 -3.53125 0.203125 -3.53125 C 0.203125 -3.53125 0.203125 -3.539062 0.203125 -3.5625 C 0.203125 -3.59375 0.203125 -3.609375 0.203125 -3.609375 L 0.5 -3.59375 C 0.664062 -3.59375 0.796875 -3.59375 0.890625 -3.59375 C 1.003906 -3.59375 1.144531 -3.59375 1.3125 -3.59375 L 1.578125 -3.609375 C 1.585938 -3.609375 1.59375 -3.59375 1.59375 -3.5625 C 1.59375 -3.539062 1.585938 -3.53125 1.578125 -3.53125 C 1.429688 -3.53125 1.320312 -3.519531 1.25 -3.5 C 1.1875 -3.476562 1.140625 -3.4375 1.109375 -3.375 C 1.085938 -3.320312 1.078125 -3.238281 1.078125 -3.125 L 1.078125 -1.9375 L 3.296875 -1.9375 L 3.296875 -3.125 C 3.296875 -3.238281 3.28125 -3.320312 3.25 -3.375 C 3.226562 -3.4375 3.179688 -3.476562 3.109375 -3.5 C 3.046875 -3.519531 2.9375 -3.53125 2.78125 -3.53125 C 2.769531 -3.53125 2.765625 -3.539062 2.765625 -3.5625 C 2.765625 -3.59375 2.769531 -3.609375 2.78125 -3.609375 L 3.0625 -3.59375 C 3.226562 -3.59375 3.367188 -3.59375 3.484375 -3.59375 C 3.585938 -3.59375 3.71875 -3.59375 3.875 -3.59375 L 4.15625 -3.609375 C 4.175781 -3.609375 4.1875 -3.59375 4.1875 -3.5625 C 4.1875 -3.539062 4.175781 -3.53125 4.15625 -3.53125 C 4.007812 -3.53125 3.898438 -3.519531 3.828125 -3.5 C 3.765625 -3.476562 3.71875 -3.441406 3.6875 -3.390625 C 3.664062 -3.335938 3.65625 -3.253906 3.65625 -3.140625 L 3.65625 -0.46875 C 3.65625 -0.351562 3.664062 -0.265625 3.6875 -0.203125 C 3.71875 -0.148438 3.765625 -0.113281 3.828125 -0.09375 C 3.898438 -0.0703125 4.007812 -0.0625 4.15625 -0.0625 Z M 4.15625 -0.0625 "/></g></g></g><g fill="#8c1e7f" fill-opacity="1"><g transform="translate(30.008698, 29.547323)"><g><path d="M 2.109375 0.0625 C 1.753906 0.0625 1.4375 -0.0195312 1.15625 -0.1875 C 0.875 -0.351562 0.65625 -0.578125 0.5 -0.859375 C 0.351562 -1.148438 0.28125 -1.460938 0.28125 -1.796875 C 0.28125 -2.191406 0.378906 -2.53125 0.578125 -2.8125 C 0.773438 -3.09375 1.03125 -3.304688 1.34375 -3.453125 C 1.664062 -3.597656 1.988281 -3.671875 2.3125 -3.671875 C 2.675781 -3.671875 2.992188 -3.582031 3.265625 -3.40625 C 3.546875 -3.238281 3.757812 -3.015625 3.90625 -2.734375 C 4.0625 -2.453125 4.140625 -2.15625 4.140625 -1.84375 C 4.140625 -1.488281 4.046875 -1.164062 3.859375 -0.875 C 3.671875 -0.582031 3.421875 -0.351562 3.109375 -0.1875 C 2.804688 -0.0195312 2.472656 0.0625 2.109375 0.0625 Z M 2.3125 -0.046875 C 2.570312 -0.046875 2.804688 -0.109375 3.015625 -0.234375 C 3.222656 -0.367188 3.390625 -0.554688 3.515625 -0.796875 C 3.640625 -1.046875 3.703125 -1.335938 3.703125 -1.671875 C 3.703125 -2.035156 3.632812 -2.359375 3.5 -2.640625 C 3.363281 -2.921875 3.171875 -3.140625 2.921875 -3.296875 C 2.679688 -3.453125 2.394531 -3.53125 2.0625 -3.53125 C 1.644531 -3.53125 1.316406 -3.394531 1.078125 -3.125 C 0.835938 -2.851562 0.71875 -2.476562 0.71875 -2 C 0.71875 -1.632812 0.785156 -1.300781 0.921875 -1 C 1.054688 -0.707031 1.242188 -0.472656 1.484375 -0.296875 C 1.722656 -0.128906 2 -0.046875 2.3125 -0.046875 Z M 2.3125 -0.046875 "/></g></g></g><g fill="#8c1e7f" fill-opacity="1"><g transform="translate(34.421268, 29.547323)"><g><path d="M 4.6875 -0.0625 C 4.695312 -0.0625 4.703125 -0.0507812 4.703125 -0.03125 C 4.703125 -0.0078125 4.695312 0 4.6875 0 C 4.5625 0 4.46875 0 4.40625 0 L 4 -0.015625 L 3.625 0 C 3.570312 0 3.488281 0 3.375 0 C 3.363281 0 3.359375 -0.0078125 3.359375 -0.03125 C 3.359375 -0.0507812 3.363281 -0.0625 3.375 -0.0625 C 3.5 -0.0625 3.59375 -0.0703125 3.65625 -0.09375 C 3.726562 -0.113281 3.773438 -0.148438 3.796875 -0.203125 C 3.816406 -0.265625 3.820312 -0.351562 3.8125 -0.46875 L 3.703125 -3.09375 L 2.390625 -0.046875 C 2.378906 -0.0234375 2.363281 -0.015625 2.34375 -0.015625 C 2.320312 -0.015625 2.304688 -0.0234375 2.296875 -0.046875 L 0.875 -3.0625 L 0.828125 -0.625 C 0.816406 -0.425781 0.847656 -0.28125 0.921875 -0.1875 C 0.992188 -0.101562 1.125 -0.0625 1.3125 -0.0625 C 1.320312 -0.0625 1.328125 -0.0507812 1.328125 -0.03125 C 1.328125 -0.0078125 1.320312 0 1.3125 0 C 1.207031 0 1.125 0 1.0625 0 L 0.75 -0.015625 L 0.453125 0 C 0.398438 0 0.320312 0 0.21875 0 C 0.21875 0 0.21875 -0.0078125 0.21875 -0.03125 C 0.21875 -0.0507812 0.21875 -0.0625 0.21875 -0.0625 C 0.382812 -0.0625 0.503906 -0.101562 0.578125 -0.1875 C 0.648438 -0.28125 0.6875 -0.425781 0.6875 -0.625 L 0.734375 -3.296875 C 0.617188 -3.453125 0.460938 -3.53125 0.265625 -3.53125 C 0.253906 -3.53125 0.25 -3.539062 0.25 -3.5625 C 0.25 -3.59375 0.253906 -3.609375 0.265625 -3.609375 L 0.484375 -3.59375 C 0.515625 -3.59375 0.566406 -3.59375 0.640625 -3.59375 C 0.710938 -3.59375 0.769531 -3.59375 0.8125 -3.59375 C 0.863281 -3.601562 0.898438 -3.609375 0.921875 -3.609375 C 0.972656 -3.609375 1.015625 -3.585938 1.046875 -3.546875 C 1.078125 -3.515625 1.125 -3.429688 1.1875 -3.296875 L 2.484375 -0.59375 L 3.734375 -3.453125 C 3.773438 -3.554688 3.832031 -3.609375 3.90625 -3.609375 C 3.925781 -3.609375 3.953125 -3.601562 3.984375 -3.59375 C 4.023438 -3.59375 4.078125 -3.59375 4.140625 -3.59375 L 4.40625 -3.59375 C 4.445312 -3.601562 4.507812 -3.609375 4.59375 -3.609375 C 4.613281 -3.609375 4.625 -3.59375 4.625 -3.5625 C 4.625 -3.539062 4.613281 -3.53125 4.59375 -3.53125 C 4.40625 -3.53125 4.269531 -3.5 4.1875 -3.4375 C 4.101562 -3.382812 4.066406 -3.285156 4.078125 -3.140625 L 4.1875 -0.46875 C 4.1875 -0.34375 4.195312 -0.253906 4.21875 -0.203125 C 4.25 -0.148438 4.296875 -0.113281 4.359375 -0.09375 C 4.429688 -0.0703125 4.539062 -0.0625 4.6875 -0.0625 Z M 4.6875 -0.0625 "/></g></g></g><g fill="#8c1e7f" fill-opacity="1"><g transform="translate(39.237075, 29.547323)"><g><path d="M 2.734375 -0.859375 C 2.734375 -0.867188 2.742188 -0.875 2.765625 -0.875 C 2.773438 -0.875 2.785156 -0.867188 2.796875 -0.859375 C 2.804688 -0.859375 2.8125 -0.851562 2.8125 -0.84375 C 2.769531 -0.601562 2.75 -0.351562 2.75 -0.09375 C 2.75 -0.0625 2.742188 -0.0351562 2.734375 -0.015625 C 2.722656 -0.00390625 2.695312 0 2.65625 0 L 0.25 0 C 0.238281 0 0.234375 -0.0078125 0.234375 -0.03125 C 0.234375 -0.0507812 0.238281 -0.0625 0.25 -0.0625 C 0.394531 -0.0625 0.5 -0.0703125 0.5625 -0.09375 C 0.632812 -0.113281 0.679688 -0.148438 0.703125 -0.203125 C 0.734375 -0.265625 0.75 -0.351562 0.75 -0.46875 L 0.75 -3.140625 C 0.75 -3.253906 0.734375 -3.335938 0.703125 -3.390625 C 0.679688 -3.441406 0.632812 -3.476562 0.5625 -3.5 C 0.5 -3.519531 0.394531 -3.53125 0.25 -3.53125 C 0.238281 -3.53125 0.234375 -3.539062 0.234375 -3.5625 C 0.234375 -3.59375 0.238281 -3.609375 0.25 -3.609375 L 2.5625 -3.609375 C 2.601562 -3.609375 2.625 -3.585938 2.625 -3.546875 L 2.625 -2.84375 C 2.625 -2.832031 2.613281 -2.820312 2.59375 -2.8125 C 2.582031 -2.8125 2.570312 -2.820312 2.5625 -2.84375 C 2.550781 -3.039062 2.488281 -3.195312 2.375 -3.3125 C 2.269531 -3.425781 2.125 -3.484375 1.9375 -3.484375 L 1.578125 -3.484375 C 1.453125 -3.484375 1.351562 -3.472656 1.28125 -3.453125 C 1.21875 -3.429688 1.175781 -3.394531 1.15625 -3.34375 C 1.132812 -3.289062 1.125 -3.210938 1.125 -3.109375 L 1.125 -1.9375 L 1.828125 -1.9375 C 2.003906 -1.9375 2.128906 -1.96875 2.203125 -2.03125 C 2.285156 -2.09375 2.328125 -2.195312 2.328125 -2.34375 C 2.328125 -2.351562 2.335938 -2.359375 2.359375 -2.359375 C 2.390625 -2.359375 2.40625 -2.351562 2.40625 -2.34375 L 2.40625 -1.875 C 2.40625 -1.757812 2.40625 -1.675781 2.40625 -1.625 L 2.40625 -1.34375 C 2.40625 -1.332031 2.394531 -1.328125 2.375 -1.328125 C 2.351562 -1.328125 2.34375 -1.332031 2.34375 -1.34375 C 2.34375 -1.507812 2.300781 -1.628906 2.21875 -1.703125 C 2.132812 -1.773438 1.992188 -1.8125 1.796875 -1.8125 L 1.125 -1.8125 L 1.125 -0.484375 C 1.125 -0.378906 1.132812 -0.300781 1.15625 -0.25 C 1.175781 -0.195312 1.21875 -0.160156 1.28125 -0.140625 C 1.34375 -0.128906 1.4375 -0.125 1.5625 -0.125 L 2.03125 -0.125 C 2.21875 -0.125 2.367188 -0.1875 2.484375 -0.3125 C 2.609375 -0.445312 2.691406 -0.628906 2.734375 -0.859375 Z M 2.734375 -0.859375 "/></g></g></g><g fill="#8c1e7f" fill-opacity="1"><g transform="translate(42.330483, 29.547323)"><g><path d="M 0.84375 -2.921875 C 0.84375 -2.773438 0.878906 -2.644531 0.953125 -2.53125 C 1.023438 -2.425781 1.113281 -2.332031 1.21875 -2.25 C 1.320312 -2.175781 1.46875 -2.085938 1.65625 -1.984375 C 1.851562 -1.859375 2.003906 -1.753906 2.109375 -1.671875 C 2.222656 -1.585938 2.316406 -1.484375 2.390625 -1.359375 C 2.472656 -1.234375 2.515625 -1.085938 2.515625 -0.921875 C 2.515625 -0.734375 2.46875 -0.5625 2.375 -0.40625 C 2.289062 -0.257812 2.15625 -0.144531 1.96875 -0.0625 C 1.789062 0.0195312 1.578125 0.0625 1.328125 0.0625 C 1.035156 0.0625 0.765625 0 0.515625 -0.125 C 0.492188 -0.144531 0.476562 -0.160156 0.46875 -0.171875 C 0.46875 -0.191406 0.46875 -0.210938 0.46875 -0.234375 L 0.390625 -1.03125 C 0.390625 -1.039062 0.398438 -1.046875 0.421875 -1.046875 C 0.441406 -1.054688 0.453125 -1.050781 0.453125 -1.03125 C 0.515625 -0.757812 0.628906 -0.519531 0.796875 -0.3125 C 0.960938 -0.113281 1.1875 -0.015625 1.46875 -0.015625 C 1.65625 -0.015625 1.816406 -0.0664062 1.953125 -0.171875 C 2.085938 -0.285156 2.15625 -0.457031 2.15625 -0.6875 C 2.15625 -0.863281 2.113281 -1.015625 2.03125 -1.140625 C 1.957031 -1.265625 1.863281 -1.367188 1.75 -1.453125 C 1.644531 -1.535156 1.5 -1.628906 1.3125 -1.734375 C 1.125 -1.847656 0.976562 -1.945312 0.875 -2.03125 C 0.769531 -2.113281 0.679688 -2.210938 0.609375 -2.328125 C 0.535156 -2.453125 0.5 -2.597656 0.5 -2.765625 C 0.5 -2.960938 0.546875 -3.128906 0.640625 -3.265625 C 0.742188 -3.398438 0.878906 -3.5 1.046875 -3.5625 C 1.210938 -3.632812 1.382812 -3.671875 1.5625 -3.671875 C 1.789062 -3.671875 2.019531 -3.625 2.25 -3.53125 C 2.300781 -3.507812 2.328125 -3.476562 2.328125 -3.4375 L 2.375 -2.765625 C 2.375 -2.753906 2.363281 -2.75 2.34375 -2.75 C 2.320312 -2.75 2.3125 -2.753906 2.3125 -2.765625 C 2.28125 -2.960938 2.195312 -3.144531 2.0625 -3.3125 C 1.925781 -3.488281 1.726562 -3.578125 1.46875 -3.578125 C 1.257812 -3.578125 1.101562 -3.515625 1 -3.390625 C 0.894531 -3.265625 0.84375 -3.109375 0.84375 -2.921875 Z M 0.84375 -2.921875 "/></g></g></g></svg>