<svg xmlns="http://www.w3.org/2000/svg" xmlns:xlink="http://www.w3.org/1999/xlink" width="80" zoomAndPan="magnify" viewBox="0 0 60 30.000001" height="40" preserveAspectRatio="xMidYMid meet" version="1.0"><defs><g/><clipPath id="02b2fd2cfe"><path d="M 0.96875 0 L 59.03125 0 L 59.03125 29.03125 L 0.96875 29.03125 Z M 0.96875 0 " clip-rule="nonzero"/></clipPath><clipPath id="17c5adf667"><path d="M 40 2 L 54 2 L 54 28.96875 L 40 28.96875 Z M 40 2 " clip-rule="nonzero"/></clipPath><clipPath id="df532f44e6"><path d="M 33.464844 8 L 41 8 L 41 16 L 33.464844 16 Z M 33.464844 8 " clip-rule="nonzero"/></clipPath></defs><g clip-path="url(#02b2fd2cfe)"><path fill="#ffffff" d="M 0.96875 0 L 59.03125 0 L 59.03125 29.03125 L 0.96875 29.03125 Z M 0.96875 0 " fill-opacity="1" fill-rule="nonzero"/><path fill="#ffffff" d="M 0.96875 0 L 59.03125 0 L 59.03125 29.03125 L 0.96875 29.03125 Z M 0.96875 0 " fill-opacity="1" fill-rule="nonzero"/></g><path fill="#8c1e7f" d="M 40.84375 13.414062 C 40.835938 13.53125 40.769531 13.664062 40.945312 13.742188 C 41.230469 13.296875 41.417969 12.796875 41.898438 12.515625 C 42.484375 12.144531 43.160156 12.214844 43.664062 12.683594 C 43.722656 12.726562 43.75 12.816406 43.777344 12.890625 C 44.023438 13.75 43.289062 14.84375 43.035156 15.6875 C 43.796875 14.65625 44.566406 13.632812 45.429688 12.679688 C 45.675781 12.390625 45.929688 12.25 46.300781 12.316406 C 46.433594 12.304688 46.539062 12.328125 46.636719 12.433594 C 47.414062 13.230469 48.210938 14.003906 48.984375 14.804688 C 49.390625 15.179688 46.105469 17.257812 45.679688 17.445312 C 45.570312 17.503906 45.480469 17.503906 45.375 17.410156 C 45.199219 17.25 45.019531 17.09375 44.824219 16.957031 C 44.105469 16.382812 43.300781 16.914062 42.617188 17.273438 C 42.433594 17.375 42.238281 17.480469 42.207031 17.75 C 42.65625 17.722656 43.097656 17.699219 43.539062 17.664062 C 43.742188 17.644531 43.925781 17.652344 44.105469 17.78125 C 44.316406 17.929688 44.546875 18.046875 44.769531 18.179688 C 45.027344 18.339844 45.300781 18.386719 45.585938 18.273438 C 46.25 18.011719 46.914062 17.753906 47.566406 17.46875 C 48.664062 16.996094 49.6875 16.371094 50.652344 15.667969 C 50.777344 15.578125 50.832031 15.449219 50.78125 15.300781 C 49.925781 13.796875 48.605469 12.59375 47.601562 11.1875 C 47.144531 10.640625 46.660156 9.824219 45.894531 9.734375 C 45.636719 9.710938 45.324219 9.71875 45.089844 9.609375 C 44.742188 9.382812 44.484375 9.066406 44.351562 8.664062 C 43.917969 7.34375 43.183594 5.707031 43.117188 5.378906 C 43.105469 5.328125 42.996094 4.941406 42.976562 4.890625 C 42.875 4.59375 42.671875 4.34375 42.402344 4.1875 C 42.269531 4.105469 42.128906 4.054688 41.972656 4.027344 C 41.484375 4.652344 42.019531 5.253906 41.371094 5.570312 C 40.910156 5.871094 41.257812 5.964844 41.515625 6.230469 C 41.296875 6.433594 41.472656 6.382812 41.351562 6.625 C 41.382812 6.851562 41.277344 7.265625 41.609375 7.277344 C 42.089844 7.3125 42.5 7.132812 42.980469 7.023438 C 43.164062 7.613281 43.414062 9.578125 42.394531 9.441406 C 40.585938 9.105469 40.441406 9.234375 40.238281 11.09375 C 40.246094 11.535156 39.941406 11.660156 39.6875 11.96875 C 40.539062 12.082031 40.929688 12.566406 40.84375 13.414062 Z M 40.84375 13.414062 " fill-opacity="1" fill-rule="nonzero"/><g clip-path="url(#17c5adf667)"><path fill="#a32c86" d="M 52.019531 12.363281 C 50.261719 9.261719 46.285156 8.277344 44.71875 5.066406 L 44.773438 5.03125 C 46.097656 6.539062 47.839844 7.714844 49.78125 8.25 C 46.453125 6.441406 47.3125 3.867188 44.769531 3.097656 C 43.953125 2.878906 42.269531 2.859375 41.941406 3.824219 C 42.007812 3.828125 42.074219 3.835938 42.140625 3.851562 C 42.148438 3.855469 42.160156 3.855469 42.167969 3.859375 L 42.191406 3.859375 C 42.1875 3.859375 42.1875 3.859375 42.1875 3.863281 C 42.339844 3.902344 42.492188 3.964844 42.625 4.054688 C 42.769531 4.152344 42.890625 4.277344 42.988281 4.425781 C 43.078125 4.5625 43.148438 4.722656 43.1875 4.890625 C 43.269531 5.230469 43.398438 5.558594 43.589844 5.851562 C 45.640625 9.003906 50.042969 9.261719 51.535156 13.351562 C 52.71875 16.660156 51.21875 20 48.078125 21.511719 C 46.105469 22.585938 42.503906 23.445312 41.222656 25.234375 C 40.316406 26.605469 40.105469 27.386719 40.460938 29.019531 C 40.484375 29.019531 40.480469 29.019531 40.5 29.019531 C 40.984375 26.722656 42.84375 25.25 44.972656 24.46875 C 46.820312 23.742188 48.796875 23.253906 50.386719 22.003906 C 53.480469 19.765625 54.148438 15.503906 52.019531 12.367188 Z M 52.019531 12.363281 " fill-opacity="1" fill-rule="nonzero"/></g><path fill="#a32c86" d="M 38.734375 23.152344 C 40.179688 20.132812 43.828125 19.910156 46.582031 18.761719 C 47.246094 18.527344 47.792969 18.074219 48.421875 17.792969 C 47.335938 18.925781 46.066406 19.90625 44.730469 20.738281 C 42.171875 22.324219 39.464844 23.839844 39.257812 27.191406 C 38.609375 25.246094 39.78125 23.128906 41.320312 21.953125 C 40.015625 22.25 38.429688 24.574219 38.464844 26.15625 C 38.285156 25.152344 38.285156 24.085938 38.734375 23.152344 Z M 38.734375 23.152344 " fill-opacity="1" fill-rule="nonzero"/><g clip-path="url(#df532f44e6)"><path fill="#8c1e7f" d="M 35.84375 9.589844 C 35.722656 9.175781 35.226562 9.019531 34.90625 8.757812 C 35.085938 8.628906 35.195312 8.765625 35.308594 8.796875 C 35.761719 8.953125 36.226562 9.175781 36.457031 9.617188 C 36.917969 10.324219 37.363281 11.039062 37.839844 11.738281 C 38.546875 12.820312 39.433594 13.789062 40 14.957031 C 40.046875 15.0625 40.027344 15.117188 39.949219 15.175781 C 39.789062 15.296875 39.632812 15.421875 39.46875 15.535156 C 39.289062 15.667969 39.226562 15.65625 39.082031 15.488281 C 37.957031 14.242188 37.382812 12.667969 36.683594 11.171875 C 36.550781 10.878906 36.332031 10.671875 36.035156 10.550781 C 35.667969 10.398438 35.3125 10.234375 34.941406 10.097656 C 34.277344 9.832031 34.496094 9.042969 33.464844 8.421875 C 33.722656 8.257812 34.171875 8.613281 34.363281 8.78125 C 34.761719 9.179688 35.230469 9.449219 35.78125 9.644531 C 35.820312 9.632812 35.832031 9.609375 35.84375 9.589844 Z M 35.84375 9.589844 " fill-opacity="1" fill-rule="nonzero"/></g><path fill="#f59a10" d="M 44.238281 2.484375 C 43.355469 2.507812 42.359375 2.417969 41.746094 3.167969 C 41.414062 2.566406 41.148438 1.9375 40.636719 1.460938 C 40.804688 1.441406 40.929688 1.484375 41.136719 1.636719 C 41.453125 1.210938 41.828125 1.914062 41.300781 1.929688 C 41.773438 2.519531 42.21875 2.480469 42.347656 1.671875 C 42.855469 2.007812 43.359375 2.238281 43.597656 1.484375 C 43.492188 1.484375 43.382812 1.496094 43.285156 1.472656 C 42.996094 1.328125 43.066406 0.988281 43.441406 0.898438 C 43.460938 0.570312 43.515625 0.261719 43.789062 0.0117188 C 44.0625 0.25 44.117188 0.5625 44.128906 0.855469 C 44.246094 0.945312 44.363281 1.011719 44.433594 1.105469 C 44.527344 1.378906 44.300781 1.621094 43.960938 1.441406 C 44.164062 2.148438 44.710938 2.125 45.183594 1.671875 C 44.957031 1.527344 45.070312 1.207031 45.335938 1.277344 C 45.453125 1.296875 45.492188 1.382812 45.492188 1.472656 C 45.492188 1.617188 45.371094 1.660156 45.234375 1.707031 C 45.414062 2.488281 45.765625 2.503906 46.289062 1.9375 C 45.746094 1.921875 46.121094 1.210938 46.429688 1.636719 C 46.585938 1.539062 46.734375 1.429688 46.898438 1.441406 C 46.5 1.980469 46.152344 2.554688 45.867188 3.164062 C 45.449219 2.65625 44.84375 2.585938 44.234375 2.484375 Z M 44.238281 2.484375 " fill-opacity="1" fill-rule="nonzero"/><path fill="#a32c86" d="M 48.839844 18.714844 C 49.417969 18.066406 49.886719 17.390625 50.226562 16.59375 C 50.316406 16.675781 50.40625 16.726562 50.332031 16.851562 C 50.394531 17.226562 50.351562 17.605469 50.242188 17.964844 C 49.742188 20.191406 45.9375 21.460938 44.027344 22.167969 C 44.015625 22.152344 44.003906 22.136719 43.996094 22.121094 C 45.25 21.289062 46.671875 20.6875 47.804688 19.671875 C 48.15625 19.367188 48.488281 19.042969 48.839844 18.714844 Z M 48.839844 18.714844 " fill-opacity="1" fill-rule="nonzero"/><g fill="#8c1e7f" fill-opacity="1"><g transform="translate(7.377395, 21.048164)"><g><path d="M 4.15625 -4.40625 C 4.820312 -4.351562 5.351562 -4.132812 5.75 -3.75 C 6.15625 -3.363281 6.359375 -2.882812 6.359375 -2.3125 C 6.359375 -1.863281 6.25 -1.457031 6.03125 -1.09375 C 5.820312 -0.738281 5.523438 -0.457031 5.140625 -0.25 C 4.765625 -0.0507812 4.34375 0.046875 3.875 0.046875 C 3.59375 0.046875 3.289062 0.0351562 2.96875 0.015625 C 2.851562 0.00390625 2.710938 -0.00390625 2.546875 -0.015625 C 2.390625 -0.0234375 2.21875 -0.03125 2.03125 -0.03125 L 1.171875 -0.015625 C 1.023438 -0.00390625 0.8125 0 0.53125 0 C 0.519531 0 0.515625 -0.0234375 0.515625 -0.078125 C 0.515625 -0.128906 0.519531 -0.15625 0.53125 -0.15625 C 0.84375 -0.15625 1.070312 -0.175781 1.21875 -0.21875 C 1.375 -0.257812 1.476562 -0.335938 1.53125 -0.453125 C 1.59375 -0.578125 1.625 -0.765625 1.625 -1.015625 L 1.625 -6.8125 C 1.625 -7.0625 1.597656 -7.242188 1.546875 -7.359375 C 1.492188 -7.484375 1.394531 -7.566406 1.25 -7.609375 C 1.101562 -7.660156 0.875 -7.6875 0.5625 -7.6875 C 0.539062 -7.6875 0.53125 -7.707031 0.53125 -7.75 C 0.53125 -7.800781 0.539062 -7.828125 0.5625 -7.828125 L 1.171875 -7.8125 C 1.523438 -7.800781 1.8125 -7.796875 2.03125 -7.796875 C 2.175781 -7.796875 2.3125 -7.796875 2.4375 -7.796875 C 2.570312 -7.804688 2.6875 -7.816406 2.78125 -7.828125 C 3.039062 -7.859375 3.285156 -7.875 3.515625 -7.875 C 4.210938 -7.875 4.734375 -7.71875 5.078125 -7.40625 C 5.429688 -7.101562 5.609375 -6.707031 5.609375 -6.21875 C 5.609375 -5.8125 5.476562 -5.453125 5.21875 -5.140625 C 4.96875 -4.828125 4.613281 -4.582031 4.15625 -4.40625 Z M 3.25 -7.6875 C 3.03125 -7.6875 2.863281 -7.664062 2.75 -7.625 C 2.644531 -7.582031 2.566406 -7.5 2.515625 -7.375 C 2.460938 -7.257812 2.4375 -7.066406 2.4375 -6.796875 L 2.4375 -4.40625 L 3 -4.40625 C 3.613281 -4.40625 4.066406 -4.5625 4.359375 -4.875 C 4.648438 -5.1875 4.796875 -5.597656 4.796875 -6.109375 C 4.796875 -6.578125 4.664062 -6.957031 4.40625 -7.25 C 4.15625 -7.539062 3.769531 -7.6875 3.25 -7.6875 Z M 3.6875 -0.171875 C 4.289062 -0.171875 4.738281 -0.328125 5.03125 -0.640625 C 5.332031 -0.953125 5.484375 -1.40625 5.484375 -2 C 5.484375 -2.625 5.296875 -3.132812 4.921875 -3.53125 C 4.554688 -3.925781 4.046875 -4.128906 3.390625 -4.140625 C 3.128906 -4.140625 2.8125 -4.128906 2.4375 -4.109375 L 2.4375 -1.015625 C 2.4375 -0.796875 2.46875 -0.628906 2.53125 -0.515625 C 2.59375 -0.398438 2.710938 -0.3125 2.890625 -0.25 C 3.078125 -0.195312 3.34375 -0.171875 3.6875 -0.171875 Z M 3.6875 -0.171875 "/></g></g></g><g fill="#8c1e7f" fill-opacity="1"><g transform="translate(14.37029, 21.048164)"><g><path d="M 4.5 -0.703125 C 4.519531 -0.703125 4.539062 -0.6875 4.5625 -0.65625 C 4.582031 -0.625 4.585938 -0.597656 4.578125 -0.578125 C 4.023438 -0.0859375 3.414062 0.15625 2.75 0.15625 C 2.257812 0.15625 1.84375 0.0390625 1.5 -0.1875 C 1.15625 -0.414062 0.894531 -0.710938 0.71875 -1.078125 C 0.539062 -1.441406 0.453125 -1.832031 0.453125 -2.25 C 0.453125 -2.75 0.566406 -3.203125 0.796875 -3.609375 C 1.035156 -4.023438 1.359375 -4.351562 1.765625 -4.59375 C 2.171875 -4.832031 2.613281 -4.953125 3.09375 -4.953125 C 3.5625 -4.953125 3.921875 -4.828125 4.171875 -4.578125 C 4.421875 -4.328125 4.546875 -3.972656 4.546875 -3.515625 C 4.546875 -3.398438 4.535156 -3.316406 4.515625 -3.265625 C 4.492188 -3.222656 4.457031 -3.203125 4.40625 -3.203125 L 1.296875 -3.1875 C 1.285156 -3 1.28125 -2.847656 1.28125 -2.734375 C 1.28125 -2.003906 1.453125 -1.410156 1.796875 -0.953125 C 2.140625 -0.503906 2.617188 -0.28125 3.234375 -0.28125 C 3.484375 -0.28125 3.695312 -0.3125 3.875 -0.375 C 4.050781 -0.445312 4.253906 -0.554688 4.484375 -0.703125 Z M 2.6875 -4.703125 C 2.320312 -4.703125 2.019531 -4.582031 1.78125 -4.34375 C 1.550781 -4.101562 1.398438 -3.769531 1.328125 -3.34375 L 3.703125 -3.390625 C 3.703125 -3.816406 3.609375 -4.140625 3.421875 -4.359375 C 3.242188 -4.585938 3 -4.703125 2.6875 -4.703125 Z M 2.6875 -4.703125 "/></g></g></g><g fill="#8c1e7f" fill-opacity="1"><g transform="translate(19.483376, 21.048164)"><g><path d="M 5.203125 -0.671875 C 5.234375 -0.671875 5.253906 -0.648438 5.265625 -0.609375 C 5.273438 -0.578125 5.257812 -0.550781 5.21875 -0.53125 L 3.9375 0.078125 C 3.90625 0.0859375 3.867188 0.09375 3.828125 0.09375 C 3.722656 0.09375 3.628906 0.0195312 3.546875 -0.125 C 3.460938 -0.269531 3.410156 -0.46875 3.390625 -0.71875 L 2.734375 -0.28125 C 2.523438 -0.15625 2.335938 -0.0625 2.171875 0 C 2.015625 0.0625 1.847656 0.09375 1.671875 0.09375 C 1.367188 0.09375 1.128906 0.0078125 0.953125 -0.15625 C 0.785156 -0.320312 0.703125 -0.53125 0.703125 -0.78125 C 0.703125 -1.03125 0.800781 -1.242188 1 -1.421875 C 1.195312 -1.609375 1.53125 -1.785156 2 -1.953125 L 3.375 -2.46875 L 3.375 -3.328125 C 3.375 -4.253906 3.109375 -4.71875 2.578125 -4.71875 C 2.296875 -4.71875 2.082031 -4.625 1.9375 -4.4375 C 1.789062 -4.25 1.691406 -4.035156 1.640625 -3.796875 C 1.617188 -3.648438 1.570312 -3.523438 1.5 -3.421875 C 1.4375 -3.328125 1.328125 -3.28125 1.171875 -3.28125 C 1.035156 -3.28125 0.929688 -3.316406 0.859375 -3.390625 C 0.785156 -3.472656 0.75 -3.5625 0.75 -3.65625 C 0.75 -3.851562 0.878906 -4.050781 1.140625 -4.25 C 1.398438 -4.457031 1.707031 -4.628906 2.0625 -4.765625 C 2.425781 -4.898438 2.75 -4.96875 3.03125 -4.96875 C 3.375 -4.96875 3.632812 -4.859375 3.8125 -4.640625 C 3.988281 -4.421875 4.078125 -4.109375 4.078125 -3.703125 L 4.078125 -1.359375 C 4.078125 -1.066406 4.113281 -0.851562 4.1875 -0.71875 C 4.257812 -0.582031 4.382812 -0.515625 4.5625 -0.515625 C 4.71875 -0.515625 4.921875 -0.566406 5.171875 -0.671875 Z M 3.375 -0.890625 L 3.375 -2.296875 L 2.203125 -1.84375 C 1.972656 -1.75 1.804688 -1.640625 1.703125 -1.515625 C 1.597656 -1.398438 1.546875 -1.257812 1.546875 -1.09375 C 1.546875 -0.894531 1.609375 -0.722656 1.734375 -0.578125 C 1.867188 -0.441406 2.039062 -0.375 2.25 -0.375 C 2.414062 -0.375 2.613281 -0.441406 2.84375 -0.578125 Z M 3.375 -0.890625 "/></g></g></g><g fill="#8c1e7f" fill-opacity="1"><g transform="translate(24.734315, 21.048164)"><g><path d="M 6.109375 -0.71875 C 6.140625 -0.71875 6.160156 -0.695312 6.171875 -0.65625 C 6.179688 -0.613281 6.171875 -0.585938 6.140625 -0.578125 L 4.671875 0.109375 L 4.625 0.125 C 4.539062 0.125 4.457031 0.03125 4.375 -0.15625 C 4.300781 -0.351562 4.265625 -0.609375 4.265625 -0.921875 L 4.265625 -0.96875 C 3.941406 -0.59375 3.617188 -0.320312 3.296875 -0.15625 C 2.972656 0.0078125 2.632812 0.09375 2.28125 0.09375 C 1.863281 0.09375 1.535156 -0.0351562 1.296875 -0.296875 C 1.066406 -0.554688 0.953125 -0.9375 0.953125 -1.4375 L 0.953125 -3.359375 C 0.953125 -3.679688 0.921875 -3.914062 0.859375 -4.0625 C 0.804688 -4.207031 0.710938 -4.28125 0.578125 -4.28125 C 0.460938 -4.28125 0.320312 -4.238281 0.15625 -4.15625 L 0.140625 -4.15625 C 0.109375 -4.15625 0.0820312 -4.175781 0.0625 -4.21875 C 0.0390625 -4.269531 0.0507812 -4.300781 0.09375 -4.3125 L 1.484375 -4.9375 L 1.53125 -4.953125 C 1.550781 -4.953125 1.578125 -4.941406 1.609375 -4.921875 C 1.640625 -4.898438 1.65625 -4.875 1.65625 -4.84375 L 1.65625 -1.859375 C 1.65625 -0.890625 2.003906 -0.40625 2.703125 -0.40625 C 2.972656 -0.40625 3.242188 -0.472656 3.515625 -0.609375 C 3.796875 -0.742188 4.046875 -0.929688 4.265625 -1.171875 L 4.265625 -3.359375 C 4.265625 -3.691406 4.238281 -3.925781 4.1875 -4.0625 C 4.132812 -4.207031 4.035156 -4.28125 3.890625 -4.28125 C 3.773438 -4.28125 3.632812 -4.238281 3.46875 -4.15625 L 3.453125 -4.15625 C 3.421875 -4.15625 3.398438 -4.175781 3.390625 -4.21875 C 3.378906 -4.269531 3.390625 -4.300781 3.421875 -4.3125 L 4.8125 -4.9375 L 4.84375 -4.953125 C 4.875 -4.953125 4.898438 -4.941406 4.921875 -4.921875 C 4.953125 -4.898438 4.96875 -4.875 4.96875 -4.84375 L 4.96875 -1.34375 C 4.96875 -1.0625 5 -0.851562 5.0625 -0.71875 C 5.132812 -0.59375 5.25 -0.53125 5.40625 -0.53125 C 5.550781 -0.53125 5.773438 -0.59375 6.078125 -0.71875 Z M 6.109375 -0.71875 "/></g></g></g><g fill="#8c1e7f" fill-opacity="1"><g transform="translate(30.912627, 21.048164)"><g><path d="M 3.890625 -0.65625 C 3.929688 -0.65625 3.957031 -0.632812 3.96875 -0.59375 C 3.988281 -0.550781 3.984375 -0.523438 3.953125 -0.515625 C 3.648438 -0.273438 3.375 -0.101562 3.125 0 C 2.875 0.101562 2.617188 0.15625 2.359375 0.15625 C 2.003906 0.15625 1.710938 0.078125 1.484375 -0.078125 C 1.265625 -0.242188 1.15625 -0.507812 1.15625 -0.875 L 1.15625 -3.828125 C 1.15625 -4.035156 1.140625 -4.1875 1.109375 -4.28125 C 1.078125 -4.375 1.019531 -4.4375 0.9375 -4.46875 C 0.851562 -4.5 0.710938 -4.515625 0.515625 -4.515625 C 0.484375 -4.515625 0.46875 -4.539062 0.46875 -4.59375 C 0.46875 -4.644531 0.484375 -4.671875 0.515625 -4.671875 C 0.847656 -4.679688 1.117188 -4.769531 1.328125 -4.9375 C 1.535156 -5.113281 1.65625 -5.34375 1.6875 -5.625 C 1.6875 -5.65625 1.722656 -5.671875 1.796875 -5.671875 C 1.847656 -5.671875 1.875 -5.65625 1.875 -5.625 L 1.875 -4.703125 C 2.289062 -4.710938 2.875 -4.753906 3.625 -4.828125 C 3.632812 -4.828125 3.648438 -4.796875 3.671875 -4.734375 C 3.691406 -4.671875 3.703125 -4.601562 3.703125 -4.53125 C 3.703125 -4.457031 3.6875 -4.382812 3.65625 -4.3125 C 3.632812 -4.238281 3.609375 -4.207031 3.578125 -4.21875 C 3.109375 -4.34375 2.539062 -4.410156 1.875 -4.421875 L 1.875 -1.296875 C 1.875 -0.960938 1.957031 -0.707031 2.125 -0.53125 C 2.300781 -0.363281 2.550781 -0.28125 2.875 -0.28125 C 3.238281 -0.28125 3.570312 -0.398438 3.875 -0.640625 Z M 3.890625 -0.65625 "/></g></g></g><g fill="#8c1e7f" fill-opacity="1"><g transform="translate(35.148468, 21.048164)"><g><path d="M 5.40625 -4.84375 C 5.425781 -4.84375 5.4375 -4.816406 5.4375 -4.765625 C 5.4375 -4.710938 5.425781 -4.6875 5.40625 -4.6875 C 5.195312 -4.6875 5.015625 -4.609375 4.859375 -4.453125 C 4.710938 -4.304688 4.570312 -4.0625 4.4375 -3.71875 L 2.90625 0.34375 C 2.59375 1.15625 2.300781 1.789062 2.03125 2.25 C 1.757812 2.707031 1.476562 3.03125 1.1875 3.21875 C 0.90625 3.414062 0.578125 3.515625 0.203125 3.515625 C 0.015625 3.515625 -0.132812 3.472656 -0.25 3.390625 C -0.375 3.304688 -0.4375 3.1875 -0.4375 3.03125 C -0.4375 2.914062 -0.398438 2.820312 -0.328125 2.75 C -0.253906 2.6875 -0.160156 2.65625 -0.046875 2.65625 C 0.0546875 2.65625 0.144531 2.664062 0.21875 2.6875 C 0.300781 2.71875 0.382812 2.757812 0.46875 2.8125 C 0.476562 2.820312 0.523438 2.847656 0.609375 2.890625 C 0.691406 2.929688 0.789062 2.953125 0.90625 2.953125 C 1.101562 2.953125 1.289062 2.863281 1.46875 2.6875 C 1.644531 2.519531 1.835938 2.226562 2.046875 1.8125 C 2.253906 1.394531 2.492188 0.820312 2.765625 0.09375 L 0.859375 -3.796875 C 0.671875 -4.160156 0.523438 -4.398438 0.421875 -4.515625 C 0.328125 -4.628906 0.195312 -4.6875 0.03125 -4.6875 C 0.0195312 -4.6875 0.015625 -4.710938 0.015625 -4.765625 C 0.015625 -4.816406 0.0195312 -4.84375 0.03125 -4.84375 L 0.46875 -4.828125 C 0.5625 -4.816406 0.695312 -4.8125 0.875 -4.8125 L 1.671875 -4.828125 C 1.796875 -4.835938 1.960938 -4.84375 2.171875 -4.84375 C 2.179688 -4.84375 2.1875 -4.816406 2.1875 -4.765625 C 2.1875 -4.710938 2.179688 -4.6875 2.171875 -4.6875 C 1.679688 -4.6875 1.4375 -4.59375 1.4375 -4.40625 C 1.4375 -4.351562 1.457031 -4.285156 1.5 -4.203125 L 3.15625 -0.796875 L 4.15625 -3.6875 C 4.226562 -3.882812 4.265625 -4.039062 4.265625 -4.15625 C 4.265625 -4.351562 4.1875 -4.488281 4.03125 -4.5625 C 3.882812 -4.644531 3.640625 -4.6875 3.296875 -4.6875 C 3.273438 -4.6875 3.265625 -4.710938 3.265625 -4.765625 C 3.265625 -4.816406 3.273438 -4.84375 3.296875 -4.84375 C 3.523438 -4.84375 3.695312 -4.835938 3.8125 -4.828125 L 4.5625 -4.8125 L 5.015625 -4.828125 C 5.097656 -4.835938 5.226562 -4.84375 5.40625 -4.84375 Z M 5.40625 -4.84375 "/></g></g></g><g fill="#8c1e7f" fill-opacity="1"><g transform="translate(15.385131, 24.303516)"><g><path d="M 0.78125 0 L 0.671875 -0.28125 L 0.265625 -0.28125 L 0.15625 0 L 0.046875 0 L 0.421875 -1 L 0.515625 -1 L 0.890625 0 Z M 0.296875 -0.390625 L 0.625 -0.390625 L 0.46875 -0.828125 Z M 0.296875 -0.390625 "/></g></g></g><g fill="#8c1e7f" fill-opacity="1"><g transform="translate(17.108982, 24.303516)"><g><path d="M 0.75 -1 L 0.75 -0.890625 L 0.4375 -0.890625 L 0.4375 0 L 0.34375 0 L 0.34375 -0.890625 L 0.03125 -0.890625 L 0.03125 -1 Z M 0.75 -1 "/></g></g></g><g fill="#8c1e7f" fill-opacity="1"><g transform="translate(18.678968, 24.303516)"><g/></g></g><g fill="#8c1e7f" fill-opacity="1"><g transform="translate(19.868567, 24.303516)"><g><path d="M 0.75 -1 L 0.84375 -1 L 0.84375 0 L 0.75 0 L 0.75 -0.453125 L 0.1875 -0.453125 L 0.1875 0 L 0.09375 0 L 0.09375 -1 L 0.1875 -1 L 0.1875 -0.546875 L 0.75 -0.546875 Z M 0.75 -1 "/></g></g></g><g fill="#8c1e7f" fill-opacity="1"><g transform="translate(21.599541, 24.303516)"><g><path d="M 0.546875 -1 C 0.617188 -1 0.679688 -0.984375 0.734375 -0.953125 C 0.796875 -0.929688 0.847656 -0.894531 0.890625 -0.84375 C 0.929688 -0.800781 0.960938 -0.75 0.984375 -0.6875 C 1.015625 -0.625 1.03125 -0.5625 1.03125 -0.5 C 1.03125 -0.425781 1.015625 -0.359375 0.984375 -0.296875 C 0.960938 -0.234375 0.929688 -0.175781 0.890625 -0.125 C 0.847656 -0.0820312 0.796875 -0.046875 0.734375 -0.015625 C 0.679688 0.00390625 0.617188 0.015625 0.546875 0.015625 C 0.472656 0.015625 0.40625 0.00390625 0.34375 -0.015625 C 0.289062 -0.046875 0.242188 -0.0820312 0.203125 -0.125 C 0.160156 -0.175781 0.125 -0.234375 0.09375 -0.296875 C 0.0703125 -0.359375 0.0625 -0.425781 0.0625 -0.5 C 0.0625 -0.5625 0.0703125 -0.625 0.09375 -0.6875 C 0.125 -0.75 0.160156 -0.800781 0.203125 -0.84375 C 0.242188 -0.894531 0.289062 -0.929688 0.34375 -0.953125 C 0.40625 -0.984375 0.472656 -1 0.546875 -1 Z M 0.546875 -0.09375 C 0.617188 -0.09375 0.679688 -0.109375 0.734375 -0.140625 C 0.796875 -0.179688 0.84375 -0.234375 0.875 -0.296875 C 0.90625 -0.359375 0.921875 -0.425781 0.921875 -0.5 C 0.921875 -0.570312 0.90625 -0.640625 0.875 -0.703125 C 0.84375 -0.765625 0.796875 -0.8125 0.734375 -0.84375 C 0.679688 -0.882812 0.617188 -0.90625 0.546875 -0.90625 C 0.472656 -0.90625 0.40625 -0.882812 0.34375 -0.84375 C 0.289062 -0.8125 0.25 -0.765625 0.21875 -0.703125 C 0.1875 -0.640625 0.171875 -0.570312 0.171875 -0.5 C 0.171875 -0.425781 0.1875 -0.359375 0.21875 -0.296875 C 0.25 -0.234375 0.289062 -0.179688 0.34375 -0.140625 C 0.40625 -0.109375 0.472656 -0.09375 0.546875 -0.09375 Z M 0.546875 -0.09375 "/></g></g></g><g fill="#8c1e7f" fill-opacity="1"><g transform="translate(23.485805, 24.303516)"><g><path d="M 0.96875 -1 L 1.0625 -1 L 1.0625 0 L 0.96875 0 L 0.96875 -0.796875 L 0.609375 -0.25 L 0.546875 -0.25 L 0.203125 -0.796875 L 0.203125 0 L 0.09375 0 L 0.09375 -1 L 0.1875 -1 L 0.578125 -0.375 Z M 0.96875 -1 "/></g></g></g><g fill="#8c1e7f" fill-opacity="1"><g transform="translate(25.440452, 24.303516)"><g><path d="M 0.1875 -0.109375 L 0.75 -0.109375 L 0.75 0 L 0.078125 0 L 0.078125 -1 L 0.734375 -1 L 0.734375 -0.890625 L 0.1875 -0.890625 L 0.1875 -0.546875 L 0.6875 -0.546875 L 0.6875 -0.453125 L 0.1875 -0.453125 Z M 0.1875 -0.109375 "/></g></g></g><g fill="#8c1e7f" fill-opacity="1"><g transform="translate(27.05033, 24.303516)"><g><path d="M 0.4375 -0.546875 C 0.476562 -0.546875 0.519531 -0.535156 0.5625 -0.515625 C 0.613281 -0.503906 0.65625 -0.488281 0.6875 -0.46875 C 0.726562 -0.457031 0.757812 -0.429688 0.78125 -0.390625 C 0.800781 -0.359375 0.8125 -0.320312 0.8125 -0.28125 C 0.8125 -0.21875 0.789062 -0.160156 0.75 -0.109375 C 0.71875 -0.0664062 0.671875 -0.0351562 0.609375 -0.015625 C 0.554688 0.00390625 0.5 0.015625 0.4375 0.015625 C 0.363281 0.015625 0.300781 0.00390625 0.25 -0.015625 C 0.195312 -0.0351562 0.148438 -0.0625 0.109375 -0.09375 C 0.078125 -0.132812 0.0546875 -0.171875 0.046875 -0.203125 L 0.140625 -0.234375 C 0.160156 -0.191406 0.195312 -0.15625 0.25 -0.125 C 0.300781 -0.101562 0.363281 -0.09375 0.4375 -0.09375 C 0.46875 -0.09375 0.492188 -0.09375 0.515625 -0.09375 C 0.546875 -0.101562 0.578125 -0.113281 0.609375 -0.125 C 0.640625 -0.144531 0.660156 -0.164062 0.671875 -0.1875 C 0.691406 -0.207031 0.703125 -0.238281 0.703125 -0.28125 C 0.703125 -0.3125 0.691406 -0.335938 0.671875 -0.359375 C 0.648438 -0.378906 0.617188 -0.394531 0.578125 -0.40625 C 0.535156 -0.425781 0.484375 -0.441406 0.421875 -0.453125 C 0.359375 -0.460938 0.300781 -0.476562 0.25 -0.5 C 0.195312 -0.519531 0.148438 -0.546875 0.109375 -0.578125 C 0.078125 -0.609375 0.0625 -0.65625 0.0625 -0.71875 C 0.0625 -0.769531 0.0703125 -0.816406 0.09375 -0.859375 C 0.125 -0.898438 0.164062 -0.929688 0.21875 -0.953125 C 0.269531 -0.984375 0.335938 -1 0.421875 -1 C 0.484375 -1 0.535156 -0.988281 0.578125 -0.96875 C 0.628906 -0.957031 0.671875 -0.9375 0.703125 -0.90625 C 0.734375 -0.875 0.753906 -0.835938 0.765625 -0.796875 L 0.671875 -0.765625 C 0.660156 -0.796875 0.640625 -0.820312 0.609375 -0.84375 C 0.585938 -0.863281 0.5625 -0.878906 0.53125 -0.890625 C 0.5 -0.898438 0.460938 -0.90625 0.421875 -0.90625 C 0.347656 -0.90625 0.285156 -0.890625 0.234375 -0.859375 C 0.191406 -0.828125 0.171875 -0.78125 0.171875 -0.71875 C 0.171875 -0.675781 0.191406 -0.640625 0.234375 -0.609375 C 0.273438 -0.585938 0.34375 -0.566406 0.4375 -0.546875 Z M 0.4375 -0.546875 "/></g></g></g></svg>