<svg xmlns="http://www.w3.org/2000/svg" xmlns:xlink="http://www.w3.org/1999/xlink" width="500" zoomAndPan="magnify" viewBox="0 0 375 374.999991" height="500" preserveAspectRatio="xMidYMid meet" version="1.0"><defs><g/><clipPath id="0dfcaa528d"><path d="M 234 162 L 241 162 L 241 167 L 234 167 Z M 234 162 " clip-rule="nonzero"/></clipPath><clipPath id="1327527966"><path d="M 233.628906 164.890625 L 239.929688 161.222656 L 241.679688 164.226562 L 235.375 167.894531 Z M 233.628906 164.890625 " clip-rule="nonzero"/></clipPath><clipPath id="8f9955fb9b"><path d="M 236.773438 163.0625 C 235.035156 164.074219 234.019531 165.566406 234.503906 166.394531 C 234.984375 167.222656 236.785156 167.078125 238.523438 166.066406 C 240.261719 165.050781 241.277344 163.558594 240.796875 162.730469 C 240.3125 161.902344 238.511719 162.046875 236.773438 163.0625 Z M 236.773438 163.0625 " clip-rule="nonzero"/></clipPath><clipPath id="104dde4858"><path d="M 192 133 L 249 133 L 249 196 L 192 196 Z M 192 133 " clip-rule="nonzero"/></clipPath><clipPath id="c202ce407d"><path d="M 264.921875 151.546875 L 236.101562 195.429688 L 192.21875 166.609375 L 221.039062 122.726562 Z M 264.921875 151.546875 " clip-rule="nonzero"/></clipPath><clipPath id="8c16af7b4c"><path d="M 265.492188 150.675781 L 189.328125 266.652344 L 145.445312 237.832031 L 221.609375 121.855469 Z M 265.492188 150.675781 " clip-rule="nonzero"/></clipPath><clipPath id="788329f5d3"><path d="M 55 130 L 116.339844 130 L 116.339844 250 L 55 250 Z M 55 130 " clip-rule="nonzero"/></clipPath></defs><g clip-path="url(#0dfcaa528d)"><g clip-path="url(#1327527966)"><g clip-path="url(#8f9955fb9b)"><path fill="#f8f9f0" d="M 233.628906 164.890625 L 239.917969 161.230469 L 241.664062 164.234375 L 235.375 167.894531 Z M 233.628906 164.890625 " fill-opacity="1" fill-rule="nonzero"/></g></g></g><g fill="#6d123f" fill-opacity="1"><g transform="translate(85.051199, 199.65532)"><g><path d="M 13.671875 -51.421875 L 28.359375 -51.421875 C 32.328125 -51.421875 35.390625 -50.488281 37.546875 -48.625 C 39.703125 -46.769531 40.78125 -44.03125 40.78125 -40.40625 C 40.78125 -37.613281 40.039062 -35.285156 38.5625 -33.421875 C 37.09375 -31.566406 34.988281 -30.34375 32.25 -29.75 C 36.164062 -29.113281 39.113281 -27.609375 41.09375 -25.234375 C 43.082031 -22.859375 44.078125 -19.441406 44.078125 -14.984375 C 44.078125 -9.691406 42.65625 -5.867188 39.8125 -3.515625 C 36.976562 -1.171875 32.867188 0 27.484375 0 L 1.84375 0 L 1.84375 -0.734375 C 3.257812 -0.734375 4.3125 -0.84375 5 -1.0625 C 5.6875 -1.28125 6.140625 -1.734375 6.359375 -2.421875 C 6.578125 -3.109375 6.6875 -4.160156 6.6875 -5.578125 L 6.6875 -45.84375 C 6.6875 -47.257812 6.578125 -48.3125 6.359375 -49 C 6.140625 -49.6875 5.6875 -50.140625 5 -50.359375 C 4.3125 -50.578125 3.257812 -50.6875 1.84375 -50.6875 L 1.84375 -51.421875 Z M 13.671875 -50.6875 L 13.671875 -30.125 L 23.875 -30.125 C 26.769531 -30.125 29.144531 -30.914062 31 -32.5 C 32.863281 -34.09375 33.796875 -36.726562 33.796875 -40.40625 C 33.796875 -43.101562 33.378906 -45.195312 32.546875 -46.6875 C 31.710938 -48.1875 30.535156 -49.226562 29.015625 -49.8125 C 27.503906 -50.394531 25.71875 -50.6875 23.65625 -50.6875 Z M 13.671875 -29.390625 L 13.671875 -0.734375 L 23.65625 -0.734375 C 28.3125 -0.734375 31.71875 -1.96875 33.875 -4.4375 C 36.03125 -6.914062 37.109375 -10.429688 37.109375 -14.984375 C 37.109375 -19.535156 36.03125 -23.070312 33.875 -25.59375 C 31.71875 -28.125 28.3125 -29.390625 23.65625 -29.390625 Z M 13.671875 -29.390625 "/></g></g></g><g fill="#6d123f" fill-opacity="1"><g transform="translate(132.805475, 199.65532)"><g><path d="M 19.546875 -37.46875 C 22.867188 -37.46875 25.554688 -36.832031 27.609375 -35.5625 C 29.671875 -34.289062 31.179688 -32.5625 32.140625 -30.375 C 33.097656 -28.195312 33.578125 -25.785156 33.578125 -23.140625 C 33.578125 -22.503906 33.523438 -21.78125 33.421875 -20.96875 C 33.328125 -20.164062 33.207031 -19.546875 33.0625 -19.109375 L 10.21875 -19.109375 C 10.3125 -12.835938 11.53125 -8.269531 13.875 -5.40625 C 16.226562 -2.539062 19.414062 -1.109375 23.4375 -1.109375 C 25.445312 -1.109375 27.171875 -1.363281 28.609375 -1.875 C 30.054688 -2.382812 31.566406 -3.253906 33.140625 -4.484375 L 33.140625 -3.59375 C 31.421875 -2.175781 29.65625 -1.097656 27.84375 -0.359375 C 26.03125 0.367188 23.679688 0.734375 20.796875 0.734375 C 15.304688 0.734375 11.101562 -0.90625 8.1875 -4.1875 C 5.28125 -7.46875 3.828125 -12.191406 3.828125 -18.359375 C 3.828125 -24.390625 5.125 -29.082031 7.71875 -32.4375 C 10.3125 -35.789062 14.253906 -37.46875 19.546875 -37.46875 Z M 10.21875 -19.84375 L 24.53125 -19.84375 C 26.101562 -19.84375 27.109375 -20.269531 27.546875 -21.125 C 27.992188 -21.976562 28.21875 -23.359375 28.21875 -25.265625 C 28.21875 -28.742188 27.566406 -31.523438 26.265625 -33.609375 C 24.960938 -35.691406 22.722656 -36.734375 19.546875 -36.734375 C 16.554688 -36.734375 14.253906 -35.410156 12.640625 -32.765625 C 11.023438 -30.117188 10.21875 -25.8125 10.21875 -19.84375 Z M 10.21875 -19.84375 "/></g></g></g><g fill="#6d123f" fill-opacity="1"><g transform="translate(169.980354, 199.65532)"><g><path d="M 17.5625 -37.46875 C 20.0625 -37.46875 22.289062 -37.304688 24.25 -36.984375 C 26.207031 -36.671875 27.867188 -36.097656 29.234375 -35.265625 C 32.765625 -33.304688 34.53125 -30 34.53125 -25.34375 L 34.53125 -5.578125 C 34.53125 -4.210938 34.640625 -3.171875 34.859375 -2.453125 C 35.078125 -1.742188 35.539062 -1.28125 36.25 -1.0625 C 36.96875 -0.84375 38.007812 -0.734375 39.375 -0.734375 L 39.375 0 L 28.0625 0 L 28.0625 -8.96875 C 27.132812 -5.6875 25.46875 -3.25 23.0625 -1.65625 C 20.664062 -0.0625 17.925781 0.734375 14.84375 0.734375 C 11.269531 0.734375 8.523438 -0.0625 6.609375 -1.65625 C 4.703125 -3.25 3.75 -5.535156 3.75 -8.515625 C 3.75 -12.929688 5.707031 -16.117188 9.625 -18.078125 C 13.539062 -20.035156 19.6875 -21.035156 28.0625 -21.078125 L 28.0625 -26.96875 C 28.0625 -30.144531 27.15625 -32.566406 25.34375 -34.234375 C 23.53125 -35.898438 20.9375 -36.734375 17.5625 -36.734375 C 14.425781 -36.734375 12.035156 -36.253906 10.390625 -35.296875 C 8.753906 -34.347656 7.664062 -33.160156 7.125 -31.734375 C 7.757812 -32.515625 8.59375 -32.90625 9.625 -32.90625 C 10.800781 -32.90625 11.691406 -32.5625 12.296875 -31.875 C 12.910156 -31.195312 13.21875 -30.316406 13.21875 -29.234375 C 13.21875 -28.253906 12.9375 -27.421875 12.375 -26.734375 C 11.8125 -26.054688 10.894531 -25.71875 9.625 -25.71875 C 8.394531 -25.71875 7.472656 -26.046875 6.859375 -26.703125 C 6.253906 -27.367188 5.953125 -28.210938 5.953125 -29.234375 C 5.953125 -31.441406 6.84375 -33.363281 8.625 -35 C 10.414062 -36.644531 13.394531 -37.46875 17.5625 -37.46875 Z M 28.0625 -15.140625 L 28.0625 -20.421875 C 21.445312 -20.367188 16.734375 -19.4375 13.921875 -17.625 C 11.109375 -15.820312 9.703125 -12.863281 9.703125 -8.75 C 9.703125 -6.34375 10.285156 -4.46875 11.453125 -3.125 C 12.628906 -1.78125 14.492188 -1.109375 17.046875 -1.109375 C 18.953125 -1.109375 20.75 -1.582031 22.4375 -2.53125 C 24.132812 -3.488281 25.492188 -4.992188 26.515625 -7.046875 C 27.546875 -9.109375 28.0625 -11.804688 28.0625 -15.140625 Z M 28.0625 -15.140625 "/></g></g></g><g fill="#6d123f" fill-opacity="1"><g transform="translate(210.975573, 199.65532)"><g><path d="M 1.90625 -35.78125 C 4.164062 -35.78125 6.066406 -35.898438 7.609375 -36.140625 C 9.148438 -36.390625 10.753906 -36.832031 12.421875 -37.46875 L 13.15625 -37.46875 L 13.15625 -11.46875 C 13.15625 -8.519531 13.800781 -6.054688 15.09375 -4.078125 C 16.394531 -2.097656 18.660156 -1.109375 21.890625 -1.109375 C 24.296875 -1.109375 26.160156 -1.679688 27.484375 -2.828125 C 28.804688 -3.984375 29.722656 -5.488281 30.234375 -7.34375 C 30.742188 -9.207031 31 -11.238281 31 -13.4375 L 31 -30.203125 C 31 -31.671875 30.898438 -32.742188 30.703125 -33.421875 C 30.515625 -34.109375 30.078125 -34.550781 29.390625 -34.75 C 28.703125 -34.945312 27.625 -35.046875 26.15625 -35.046875 L 26.15625 -35.78125 C 28.40625 -35.78125 30.3125 -35.898438 31.875 -36.140625 C 33.445312 -36.390625 35.066406 -36.832031 36.734375 -37.46875 L 37.46875 -37.46875 L 37.46875 -5.578125 C 37.46875 -4.210938 37.578125 -3.171875 37.796875 -2.453125 C 38.015625 -1.742188 38.46875 -1.28125 39.15625 -1.0625 C 39.84375 -0.84375 40.875 -0.734375 42.25 -0.734375 L 42.25 0 L 31 0 L 31 -7.203125 C 30.363281 -4.796875 29.175781 -2.867188 27.4375 -1.421875 C 25.695312 0.015625 23.164062 0.734375 19.84375 0.734375 C 16.75 0.734375 14.234375 0.144531 12.296875 -1.03125 C 10.367188 -2.207031 8.953125 -3.773438 8.046875 -5.734375 C 7.140625 -7.691406 6.6875 -9.867188 6.6875 -12.265625 L 6.6875 -30.203125 C 6.6875 -31.671875 6.585938 -32.742188 6.390625 -33.421875 C 6.191406 -34.109375 5.757812 -34.550781 5.09375 -34.75 C 4.4375 -34.945312 3.375 -35.046875 1.90625 -35.046875 Z M 1.90625 -35.78125 "/></g></g></g><g fill="#6d123f" fill-opacity="1"><g transform="translate(254.90951, 199.65532)"><g><path d="M 6.46875 -46.0625 C 7.59375 -46.0625 8.628906 -46.207031 9.578125 -46.5 C 10.535156 -46.800781 11.410156 -47.171875 12.203125 -47.609375 L 12.9375 -47.609375 L 12.9375 -35.78125 L 21.890625 -35.78125 L 21.890625 -35.046875 L 12.9375 -35.046875 L 12.9375 -7.125 C 12.9375 -3.113281 14.550781 -1.109375 17.78125 -1.109375 C 19.394531 -1.109375 20.773438 -1.691406 21.921875 -2.859375 C 23.078125 -4.035156 23.65625 -6.09375 23.65625 -9.03125 L 24.390625 -9.03125 C 24.390625 -5.507812 23.53125 -3 21.8125 -1.5 C 20.101562 -0.0078125 18.070312 0.734375 15.71875 0.734375 C 12.726562 0.734375 10.4375 -0.15625 8.84375 -1.9375 C 7.257812 -3.726562 6.46875 -6.191406 6.46875 -9.328125 L 6.46875 -35.046875 L 0.734375 -35.046875 L 0.734375 -35.78125 L 6.46875 -35.78125 Z M 6.46875 -46.0625 "/></g></g></g><g fill="#6d123f" fill-opacity="1"><g transform="translate(279.741728, 199.65532)"><g><path d="M 0.734375 -36.734375 L 19.46875 -36.734375 L 19.46875 -36 C 17.601562 -36 16.242188 -35.753906 15.390625 -35.265625 C 14.535156 -34.773438 14.109375 -33.894531 14.109375 -32.625 C 14.109375 -31.6875 14.378906 -30.335938 14.921875 -28.578125 L 23.65625 -1.6875 L 31.515625 -26.671875 C 32.296875 -29.023438 32.6875 -30.882812 32.6875 -32.25 C 32.6875 -33.675781 32.222656 -34.65625 31.296875 -35.1875 C 30.367188 -35.726562 28.945312 -36 27.03125 -36 L 27.03125 -36.734375 L 40.484375 -36.734375 L 40.484375 -36 C 39.109375 -36 37.976562 -35.789062 37.09375 -35.375 C 36.21875 -34.957031 35.4375 -34.148438 34.75 -32.953125 C 34.0625 -31.753906 33.300781 -29.929688 32.46875 -27.484375 L 20.34375 10.953125 C 18.488281 16.335938 14.867188 19.03125 9.484375 19.03125 C 6.835938 19.03125 4.71875 18.351562 3.125 17 C 1.53125 15.65625 0.734375 13.8125 0.734375 11.46875 C 0.734375 10.289062 1.097656 9.332031 1.828125 8.59375 C 2.566406 7.863281 3.523438 7.5 4.703125 7.5 C 5.878906 7.5 6.820312 7.863281 7.53125 8.59375 C 8.238281 9.332031 8.59375 10.289062 8.59375 11.46875 C 8.59375 12.632812 8.238281 13.570312 7.53125 14.28125 C 6.820312 15 5.851562 15.359375 4.625 15.359375 C 3.5 15.359375 2.617188 14.960938 1.984375 14.171875 C 2.523438 15.492188 3.457031 16.507812 4.78125 17.21875 C 6.101562 17.9375 7.671875 18.296875 9.484375 18.296875 C 12.023438 18.296875 14.128906 17.707031 15.796875 16.53125 C 17.460938 15.351562 18.734375 13.492188 19.609375 10.953125 L 23.0625 0 L 17.40625 0 L 7.78125 -30.125 C 7.25 -31.6875 6.710938 -32.882812 6.171875 -33.71875 C 5.628906 -34.550781 4.953125 -35.140625 4.140625 -35.484375 C 3.335938 -35.828125 2.203125 -36 0.734375 -36 Z M 0.734375 -36.734375 "/></g></g></g><g clip-path="url(#104dde4858)"><g clip-path="url(#c202ce407d)"><g clip-path="url(#8c16af7b4c)"><path fill="#6d123f" d="M 186.820312 255.375 C 190.773438 254.632812 194.621094 253.113281 197.855469 250.703125 C 201.515625 247.988281 204.105469 244.148438 205.824219 240 C 209.460938 231.210938 209.96875 221.117188 209.796875 211.707031 C 209.640625 202.082031 207.949219 192.773438 205.78125 183.449219 C 203.550781 173.921875 203.851562 164.140625 207.824219 155.085938 C 211.355469 147.042969 217.90625 139.78125 226.894531 138.234375 C 234.550781 136.882812 243.089844 140.546875 245.78125 148.242188 C 247.328125 152.59375 246.292969 157.226562 243.539062 160.925781 C 240.988281 164.367188 237.316406 167.785156 232.960938 168.648438 C 230.964844 169.023438 228.972656 168.652344 227.363281 167.402344 C 227.152344 167.230469 226.871094 167.5625 227.066406 167.757812 C 232.746094 173.464844 241.574219 165.886719 245.050781 161.238281 C 247.542969 157.886719 248.839844 154.039062 248.394531 149.828125 C 247.972656 146.085938 246.429688 142.417969 243.976562 139.542969 C 238.398438 132.996094 228.9375 131.964844 221.160156 134.632812 C 212.023438 137.796875 205.679688 146.070312 202.898438 155.09375 C 201.515625 159.5625 200.886719 164.265625 200.996094 168.9375 C 201.105469 173.800781 202.210938 178.382812 203.5625 183.027344 C 204.933594 187.75 206.429688 192.425781 207.347656 197.238281 C 208.253906 202.078125 208.738281 206.960938 208.816406 211.871094 C 208.894531 216.683594 208.589844 221.441406 207.832031 226.191406 C 207.035156 231.304688 205.695312 236.449219 203.023438 240.914062 C 200.699219 244.796875 197.425781 248.054688 193.277344 249.929688 C 189.542969 251.625 185.632812 251.90625 181.648438 251.167969 C 174.097656 249.742188 167.832031 243.453125 166.035156 236.023438 C 164.34375 228.984375 166.5 218.058594 175.203125 217.039062 C 177.625 216.75 179.992188 217.140625 181.621094 219.050781 C 181.910156 219.402344 182.4375 218.941406 182.152344 218.589844 C 176.53125 211.660156 166.625 215.746094 162.386719 222 C 157.101562 229.800781 158.753906 239.664062 164.316406 246.878906 C 169.566406 253.730469 178.453125 256.972656 186.820312 255.375 Z M 186.820312 255.375 " fill-opacity="1" fill-rule="nonzero"/></g></g></g><g clip-path="url(#788329f5d3)"><path fill="#6d123f" d="M 101.671875 133.375 C 105.785156 134.558594 109.414062 137.191406 111.945312 140.636719 C 113.058594 142.136719 113.984375 143.777344 114.726562 145.492188 C 115.230469 146.640625 115.648438 147.832031 116.011719 149.042969 C 115.386719 145.292969 113.933594 141.585938 111.605469 138.523438 C 106.398438 131.511719 96.667969 128.636719 88.519531 131.886719 C 83.3125 133.902344 79.4375 138.382812 78.445312 143.90625 C 78.226562 145.074219 78.128906 146.261719 78.136719 147.449219 C 78.15625 154.820312 81.03125 161.875 84.671875 168.160156 C 85.285156 169.214844 85.921875 170.253906 86.578125 171.28125 C 82.175781 166.03125 78.125 160.539062 75.214844 154.25 C 73.152344 149.523438 72.195312 143.597656 74.800781 138.90625 C 75.867188 137.007812 77.609375 135.554688 79.6875 134.890625 C 78.042969 135.210938 76.5 136.042969 75.316406 137.234375 C 74.101562 138.433594 73.234375 139.960938 72.6875 141.574219 C 72.265625 142.839844 72.011719 144.140625 71.90625 145.453125 C 70.222656 146.832031 65.175781 151.46875 65.3125 157.484375 C 65.375 160.042969 65.585938 162.195312 65.25 163.976562 C 63.003906 163.640625 61.46875 161.578125 61.46875 161.578125 C 62.3125 164.113281 63.683594 165.050781 64.835938 165.363281 C 64.496094 166.136719 63.976562 166.824219 63.195312 167.429688 C 60.382812 169.601562 56.371094 171.1875 56.011719 172.609375 C 55.8125 173.386719 56.019531 174.230469 57.417969 174.90625 C 58.578125 175.472656 59.019531 176.496094 59.796875 176.914062 C 59.796875 176.914062 59.046875 178.210938 57.710938 178.667969 C 56.371094 179.128906 57.164062 181.09375 58.210938 181.59375 C 59.253906 182.09375 60.1875 182.609375 60.59375 183.222656 C 60.59375 183.222656 58.253906 182.972656 57.960938 184.433594 C 57.667969 185.898438 59.6875 187.125 59.882812 188.070312 C 60.125 189.261719 59.15625 190.6875 58.753906 192.207031 C 58.082031 194.734375 59.964844 197.179688 63.390625 197.347656 C 66.816406 197.515625 74.460938 197.492188 76.261719 197.804688 C 81.277344 198.683594 88.714844 205.285156 90.382812 215.898438 C 92.054688 226.511719 87.625 231.441406 87.625 231.441406 C 87.625 231.441406 101.191406 222.695312 98.851562 207.765625 C 96.511719 192.832031 82.304688 183.308594 75.566406 168.65625 C 70.527344 157.707031 71.109375 150.316406 71.84375 147.007812 C 71.847656 150.285156 72.679688 153.585938 73.949219 156.582031 C 75.914062 161.222656 78.570312 165.546875 81.480469 169.644531 C 87.222656 177.730469 94.015625 184.902344 99.714844 192.980469 C 102.140625 196.449219 104.351562 200.085938 105.898438 204.011719 C 109.472656 213.09375 108.628906 223.804688 103.507812 232.128906 C 99.535156 238.6875 92.941406 243.480469 85.347656 244.800781 C 81.8125 245.4375 78.144531 245.378906 74.613281 244.765625 C 68.628906 243.726562 62.910156 240.472656 59.875 235.085938 C 57.136719 230.386719 56.753906 223.828125 60.511719 219.566406 C 61.835938 218.0625 63.617188 216.921875 65.605469 216.554688 C 69.785156 215.726562 74.28125 218.601562 74.257812 223.097656 C 74.257812 224.171875 73.992188 225.25 73.558594 226.261719 C 74.113281 225.300781 74.496094 224.230469 74.609375 223.117188 C 75.023438 219.507812 72.320312 216.296875 68.917969 215.367188 C 67.210938 214.871094 65.339844 214.90625 63.632812 215.433594 C 59.582031 216.679688 56.574219 220.328125 55.578125 224.382812 C 54.09375 230.226562 56.167969 236.558594 60.113281 240.984375 C 63.25 244.554688 67.582031 246.992188 72.128906 248.230469 C 87.339844 252.28125 101.167969 245.648438 108.050781 233.445312 C 106.285156 238.613281 103.496094 243.453125 99.515625 247.238281 C 98.539062 248.164062 97.488281 249.027344 96.375 249.828125 C 97.632812 249.28125 98.835938 248.59375 99.976562 247.804688 C 100.6875 247.316406 101.382812 246.765625 102.03125 246.203125 C 104.542969 244.019531 106.613281 241.355469 108.246094 238.453125 C 112.925781 229.992188 114.140625 219.816406 112.136719 210.359375 C 111.699219 207.636719 110.949219 204.964844 109.894531 202.414062 C 108.136719 198.183594 105.671875 194.289062 102.96875 190.632812 C 102.160156 189.535156 101.324219 188.457031 100.46875 187.390625 C 95.769531 180.664062 90.761719 174.144531 86.800781 166.953125 C 83.296875 160.597656 80.429688 153.488281 80.78125 146.113281 C 81.417969 135.585938 92.269531 130.585938 101.671875 133.375 Z M 101.671875 133.375 " fill-opacity="1" fill-rule="nonzero"/></g><g fill="#6d123f" fill-opacity="1"><g transform="translate(122.839949, 215.33837)"><g><path d="M 6.359375 -1.890625 C 6.128906 -1.296875 5.753906 -0.820312 5.234375 -0.46875 C 4.703125 -0.09375 4.117188 0.09375 3.484375 0.09375 C 2.628906 0.09375 1.898438 -0.222656 1.296875 -0.859375 C 0.703125 -1.472656 0.40625 -2.210938 0.40625 -3.078125 C 0.40625 -3.515625 0.484375 -3.925781 0.640625 -4.3125 C 0.796875 -4.695312 1.015625 -5.03125 1.296875 -5.3125 C 1.898438 -5.945312 2.628906 -6.265625 3.484375 -6.265625 C 4.117188 -6.265625 4.695312 -6.085938 5.21875 -5.734375 C 5.738281 -5.367188 6.113281 -4.890625 6.34375 -4.296875 L 5.640625 -4.296875 C 5.304688 -4.910156 4.8125 -5.316406 4.15625 -5.515625 C 3.9375 -5.578125 3.6875 -5.609375 3.40625 -5.609375 C 3.113281 -5.609375 2.820312 -5.539062 2.53125 -5.40625 C 2.226562 -5.269531 1.96875 -5.085938 1.75 -4.859375 C 1.28125 -4.367188 1.046875 -3.773438 1.046875 -3.078125 C 1.046875 -2.398438 1.28125 -1.8125 1.75 -1.3125 C 2.226562 -0.8125 2.804688 -0.5625 3.484375 -0.5625 C 3.953125 -0.5625 4.378906 -0.679688 4.765625 -0.921875 C 5.148438 -1.171875 5.445312 -1.492188 5.65625 -1.890625 Z M 6.359375 -1.890625 "/></g></g></g><g fill="#6d123f" fill-opacity="1"><g transform="translate(134.511418, 215.33837)"><g><path d="M 6.125 -3.109375 C 6.125 -3.804688 5.878906 -4.40625 5.390625 -4.90625 C 4.890625 -5.394531 4.285156 -5.640625 3.578125 -5.640625 C 2.878906 -5.640625 2.285156 -5.394531 1.796875 -4.90625 C 1.296875 -4.40625 1.046875 -3.804688 1.046875 -3.109375 C 1.046875 -2.410156 1.296875 -1.8125 1.796875 -1.3125 C 2.285156 -0.8125 2.878906 -0.5625 3.578125 -0.5625 C 4.285156 -0.5625 4.890625 -0.8125 5.390625 -1.3125 C 5.878906 -1.8125 6.125 -2.410156 6.125 -3.109375 Z M 6.765625 -3.109375 C 6.765625 -2.671875 6.679688 -2.257812 6.515625 -1.875 C 6.347656 -1.488281 6.125 -1.148438 5.84375 -0.859375 C 5.550781 -0.566406 5.207031 -0.34375 4.8125 -0.1875 C 4.425781 -0.0078125 4.015625 0.078125 3.578125 0.078125 C 3.140625 0.078125 2.734375 -0.0078125 2.359375 -0.1875 C 1.960938 -0.34375 1.625 -0.566406 1.34375 -0.859375 C 1.050781 -1.148438 0.820312 -1.488281 0.65625 -1.875 C 0.488281 -2.257812 0.40625 -2.671875 0.40625 -3.109375 C 0.40625 -3.546875 0.488281 -3.957031 0.65625 -4.34375 C 0.820312 -4.726562 1.050781 -5.066406 1.34375 -5.359375 C 1.625 -5.640625 1.960938 -5.863281 2.359375 -6.03125 C 2.734375 -6.195312 3.140625 -6.28125 3.578125 -6.28125 C 4.015625 -6.28125 4.425781 -6.195312 4.8125 -6.03125 C 5.207031 -5.863281 5.550781 -5.640625 5.84375 -5.359375 C 6.125 -5.066406 6.347656 -4.726562 6.515625 -4.34375 C 6.679688 -3.957031 6.765625 -3.546875 6.765625 -3.109375 Z M 6.765625 -3.109375 "/></g></g></g><g fill="#6d123f" fill-opacity="1"><g transform="translate(146.727994, 215.33837)"><g><path d="M 2.40625 -2.921875 C 1.144531 -3.210938 0.515625 -3.75 0.515625 -4.53125 C 0.515625 -5.113281 0.71875 -5.550781 1.125 -5.84375 C 1.53125 -6.132812 2.003906 -6.28125 2.546875 -6.28125 C 3.753906 -6.28125 4.46875 -5.828125 4.6875 -4.921875 L 4 -4.921875 C 3.875 -5.460938 3.390625 -5.734375 2.546875 -5.734375 C 1.953125 -5.734375 1.535156 -5.554688 1.296875 -5.203125 C 1.203125 -5.066406 1.15625 -4.898438 1.15625 -4.703125 C 1.15625 -4.316406 1.363281 -4.019531 1.78125 -3.8125 C 1.976562 -3.71875 2.390625 -3.585938 3.015625 -3.421875 C 3.648438 -3.253906 4.109375 -3.070312 4.390625 -2.875 C 4.785156 -2.59375 4.984375 -2.203125 4.984375 -1.703125 C 4.984375 -1.078125 4.738281 -0.601562 4.25 -0.28125 C 3.832031 -0.0078125 3.320312 0.125 2.71875 0.125 C 1.34375 0.125 0.550781 -0.398438 0.34375 -1.453125 L 1.09375 -1.453125 C 1.207031 -0.796875 1.75 -0.46875 2.71875 -0.46875 C 3.40625 -0.46875 3.890625 -0.65625 4.171875 -1.03125 C 4.273438 -1.1875 4.328125 -1.394531 4.328125 -1.65625 C 4.328125 -1.90625 4.226562 -2.113281 4.03125 -2.28125 C 3.738281 -2.507812 3.195312 -2.722656 2.40625 -2.921875 Z M 2.40625 -2.921875 "/></g></g></g><g fill="#6d123f" fill-opacity="1"><g transform="translate(156.991254, 215.33837)"><g><path d="M 6.390625 0 L 5.421875 -4.40625 L 3.5625 0.359375 L 1.703125 -4.40625 L 0.75 0 L 0.09375 0 L 1.53125 -6.59375 L 3.5625 -1.296875 L 5.59375 -6.59375 L 7.03125 0 Z M 6.390625 0 "/></g></g></g><g fill="#6d123f" fill-opacity="1"><g transform="translate(169.153324, 215.33837)"><g><path d="M 4.359375 0 L 0.6875 0 L 0.6875 -6.1875 L 4.359375 -6.1875 L 4.359375 -5.59375 L 1.3125 -5.59375 L 1.3125 -3.390625 L 4.265625 -3.390625 L 4.265625 -2.796875 L 1.3125 -2.796875 L 1.3125 -0.59375 L 4.359375 -0.59375 Z M 4.359375 0 "/></g></g></g><g fill="#6d123f" fill-opacity="1"><g transform="translate(179.234882, 215.33837)"><g><path d="M 0.1875 -5.609375 L 0.1875 -6.203125 L 3.8125 -6.203125 L 3.8125 -5.609375 L 2.3125 -5.609375 L 2.3125 -0.015625 L 1.6875 -0.015625 L 1.6875 -5.609375 Z M 0.1875 -5.609375 "/></g></g></g><g fill="#6d123f" fill-opacity="1"><g transform="translate(188.280734, 215.33837)"><g><path d="M 1.3125 0 L 0.6875 0 L 0.6875 -6.1875 L 1.3125 -6.1875 Z M 1.3125 0 "/></g></g></g><g fill="#6d123f" fill-opacity="1"><g transform="translate(195.32784, 215.33837)"><g><path d="M 6.359375 -1.890625 C 6.128906 -1.296875 5.753906 -0.820312 5.234375 -0.46875 C 4.703125 -0.09375 4.117188 0.09375 3.484375 0.09375 C 2.628906 0.09375 1.898438 -0.222656 1.296875 -0.859375 C 0.703125 -1.472656 0.40625 -2.210938 0.40625 -3.078125 C 0.40625 -3.515625 0.484375 -3.925781 0.640625 -4.3125 C 0.796875 -4.695312 1.015625 -5.03125 1.296875 -5.3125 C 1.898438 -5.945312 2.628906 -6.265625 3.484375 -6.265625 C 4.117188 -6.265625 4.695312 -6.085938 5.21875 -5.734375 C 5.738281 -5.367188 6.113281 -4.890625 6.34375 -4.296875 L 5.640625 -4.296875 C 5.304688 -4.910156 4.8125 -5.316406 4.15625 -5.515625 C 3.9375 -5.578125 3.6875 -5.609375 3.40625 -5.609375 C 3.113281 -5.609375 2.820312 -5.539062 2.53125 -5.40625 C 2.226562 -5.269531 1.96875 -5.085938 1.75 -4.859375 C 1.28125 -4.367188 1.046875 -3.773438 1.046875 -3.078125 C 1.046875 -2.398438 1.28125 -1.8125 1.75 -1.3125 C 2.226562 -0.8125 2.804688 -0.5625 3.484375 -0.5625 C 3.953125 -0.5625 4.378906 -0.679688 4.765625 -0.921875 C 5.148438 -1.171875 5.445312 -1.492188 5.65625 -1.890625 Z M 6.359375 -1.890625 "/></g></g></g><g fill="#6d123f" fill-opacity="1"><g transform="translate(214.500681, 215.33837)"><g><path d="M 4.71875 -1.734375 C 4.71875 -1.472656 4.660156 -1.226562 4.546875 -1 C 4.429688 -0.769531 4.273438 -0.582031 4.078125 -0.4375 C 3.703125 -0.144531 3.203125 0 2.578125 0 L 0.6875 0 L 0.6875 -6.1875 L 2.359375 -6.1875 C 3.253906 -6.1875 3.84375 -5.90625 4.125 -5.34375 C 4.21875 -5.144531 4.265625 -4.941406 4.265625 -4.734375 C 4.265625 -4.523438 4.25 -4.363281 4.21875 -4.25 C 4.1875 -4.132812 4.140625 -4.019531 4.078125 -3.90625 C 3.929688 -3.675781 3.75 -3.507812 3.53125 -3.40625 C 3.894531 -3.3125 4.1875 -3.117188 4.40625 -2.828125 C 4.613281 -2.523438 4.71875 -2.160156 4.71875 -1.734375 Z M 3.625 -4.640625 C 3.625 -5.265625 3.203125 -5.578125 2.359375 -5.578125 L 1.3125 -5.578125 L 1.3125 -3.640625 L 2.53125 -3.640625 C 2.863281 -3.640625 3.128906 -3.722656 3.328125 -3.890625 C 3.523438 -4.054688 3.625 -4.304688 3.625 -4.640625 Z M 4.078125 -1.84375 C 4.078125 -2.03125 4.046875 -2.191406 3.984375 -2.328125 C 3.910156 -2.460938 3.816406 -2.582031 3.703125 -2.6875 C 3.460938 -2.90625 3.179688 -3.015625 2.859375 -3.015625 L 1.3125 -3.015625 L 1.3125 -0.609375 L 2.75 -0.609375 C 3.144531 -0.609375 3.460938 -0.722656 3.703125 -0.953125 C 3.953125 -1.179688 4.078125 -1.476562 4.078125 -1.84375 Z M 4.078125 -1.84375 "/></g></g></g><g fill="#6d123f" fill-opacity="1"><g transform="translate(224.445958, 215.33837)"><g><path d="M 4.359375 0 L 0.6875 0 L 0.6875 -6.1875 L 4.359375 -6.1875 L 4.359375 -5.59375 L 1.3125 -5.59375 L 1.3125 -3.390625 L 4.265625 -3.390625 L 4.265625 -2.796875 L 1.3125 -2.796875 L 1.3125 -0.59375 L 4.359375 -0.59375 Z M 4.359375 0 "/></g></g></g><g fill="#6d123f" fill-opacity="1"><g transform="translate(234.527522, 215.33837)"><g><path d="M 1.6875 -2.28125 L 3.921875 -2.28125 L 2.8125 -5.125 Z M 5.515625 0 L 4.828125 0 L 4.171875 -1.6875 L 1.453125 -1.6875 L 0.78125 0 L 0.09375 0 L 2.8125 -6.609375 Z M 5.515625 0 "/></g></g></g><g fill="#6d123f" fill-opacity="1"><g transform="translate(245.181451, 215.33837)"><g><path d="M 5.15625 -2.046875 C 5.15625 -1.378906 4.9375 -0.851562 4.5 -0.46875 C 4.09375 -0.101562 3.546875 0.078125 2.859375 0.078125 C 2.160156 0.078125 1.609375 -0.101562 1.203125 -0.46875 C 0.765625 -0.851562 0.546875 -1.378906 0.546875 -2.046875 L 0.546875 -6.1875 L 1.1875 -6.1875 L 1.1875 -1.953125 C 1.1875 -1.484375 1.351562 -1.125 1.6875 -0.875 C 1.976562 -0.664062 2.367188 -0.5625 2.859375 -0.5625 C 3.609375 -0.5625 4.117188 -0.8125 4.390625 -1.3125 C 4.472656 -1.488281 4.515625 -1.703125 4.515625 -1.953125 L 4.515625 -6.1875 L 5.15625 -6.1875 Z M 5.15625 -2.046875 "/></g></g></g><g fill="#6d123f" fill-opacity="1"><g transform="translate(255.92622, 215.33837)"><g><path d="M 0.1875 -5.609375 L 0.1875 -6.203125 L 3.8125 -6.203125 L 3.8125 -5.609375 L 2.3125 -5.609375 L 2.3125 -0.015625 L 1.6875 -0.015625 L 1.6875 -5.609375 Z M 0.1875 -5.609375 "/></g></g></g><g fill="#6d123f" fill-opacity="1"><g transform="translate(264.972078, 215.33837)"><g><path d="M 3.078125 -2.90625 L 3.078125 0 L 2.4375 0 L 2.4375 -2.90625 L 0.09375 -6.1875 L 0.90625 -6.1875 L 2.75 -3.53125 L 4.59375 -6.1875 L 5.40625 -6.1875 Z M 3.078125 -2.90625 "/></g></g></g></svg>